<svg width="120" height="120" viewBox="0 0 120 120" fill="none" xmlns="http://www.w3.org/2000/svg">
<g clip-path="url(#clip0_2159_903)">
<rect width="120" height="120" rx="60" fill="#249D64"/>
<path d="M60 120C93.1371 120 120 93.1371 120 60C120 26.8629 93.1371 0 60 0C26.8629 0 0 26.8629 0 60C0 93.1371 26.8629 120 60 120Z" fill="#CAFFE6"/>
<path d="M132.75 100.5L96 58L80.5 82.5L59.5 89L34.5 83.5L123 159L132.75 100.5Z" fill="#96F2C7"/>
<path fill-rule="evenodd" clip-rule="evenodd" d="M59.4135 22C64.3668 22 65.6614 22.225 70.3895 23.8562C73.3164 24.8687 77.2565 26.6688 82.4912 29.9313L84.7426 27.625L86.2624 34.825C87.0504 38.7625 87.6695 42.025 87.6695 42.0813C87.6133 42.0813 84.3486 41.4625 73.2038 39.1562L74.611 37.75C75.9619 36.4 76.0182 36.2875 75.0613 35.3875C74.4984 34.8812 72.5847 33.8125 70.7835 33.025C69.0386 32.2375 65.8865 31.2812 63.7476 30.9437C60.877 30.4375 58.9633 30.4375 55.7549 30.9437C53.4471 31.3375 49.9011 32.4063 47.8747 33.3625C45.4544 34.5438 42.9215 36.4 40.5012 38.8187C38.0808 41.2375 36.2234 43.7687 35.0413 46.1875C34.0845 48.2125 33.015 51.5875 32.621 53.7812C32.1144 56.875 32.1144 58.6187 32.621 61.9375C33.015 64.2437 34.0845 67.7875 35.0413 69.8125C36.2234 72.2313 38.0808 74.7625 40.5012 77.1812C42.9215 79.6 45.4544 81.4563 47.8747 82.6375C49.9011 83.5938 53.4471 84.6625 55.7549 85.0562C59.0195 85.5625 60.877 85.5625 63.9165 85.0562C66.0554 84.6625 69.6578 83.5375 71.7967 82.4688C74.4421 81.175 76.8625 79.375 79.1702 77.0125C81.478 74.7063 83.2792 72.1187 84.5175 69.5312C85.5306 67.3938 86.6001 63.9062 87.557 58H96L95.606 61.4875C95.4371 63.4562 94.5928 66.9438 93.8048 69.25C93.0168 71.5562 91.4971 74.875 90.4839 76.5625C89.527 78.25 87.0504 81.2875 85.0241 83.3125C82.9977 85.3375 79.6768 87.925 77.7068 89.1063C75.6804 90.2875 72.0218 91.8625 69.5452 92.5938C66.0554 93.6625 63.8039 94 59.5261 94C55.0795 94 53.222 93.7187 49.3945 92.425C46.8616 91.5812 43.2592 90.0062 41.4018 88.9375C39.6006 87.8688 36.3922 85.3375 34.3659 83.3125C32.3396 81.2875 29.863 78.25 28.9061 76.5625C27.8929 74.875 26.3732 71.5562 25.5289 69.25C24.1217 65.4813 23.9528 64.3 24.0091 58C24.0091 51.8125 24.178 50.4625 25.5289 46.75C26.3732 44.4438 27.8929 41.125 28.9061 39.4375C29.863 37.75 32.3396 34.7125 34.3659 32.6875C36.3922 30.6625 39.6006 28.1312 41.4018 27.0625C43.2592 25.9938 46.8053 24.4187 49.2819 23.575C52.9406 22.3375 54.798 22.0563 59.4135 22V22ZM61.1022 39.2125C63.0722 39.3813 65.8865 40.1125 67.8003 41.0125C69.7703 41.9125 72.0218 43.5437 73.3727 45.0625C74.6673 46.4688 76.2996 49 77.0876 50.6875C78.2134 53.1063 78.4948 54.6812 78.4948 58C78.4948 61.3188 78.2134 62.8937 77.0876 65.3125C76.2996 67 74.6673 69.5312 73.3727 70.9375C71.9655 72.5125 69.714 74.0875 67.5189 75.1562C64.5357 76.5063 63.1848 76.7875 59.695 76.7875C56.3741 76.7875 54.798 76.5063 52.3777 75.3813C50.6891 74.5938 48.1562 72.9625 46.8616 71.725C45.4544 70.4875 43.6532 67.9563 42.6401 65.875C41.064 62.7812 40.8389 61.6562 40.8389 58C40.8952 54.5688 41.1766 53.1062 42.5275 50.1812C43.5407 48.0437 45.173 45.7375 46.5801 44.4438C47.931 43.2063 50.0136 41.7438 51.252 41.125C52.4903 40.5062 54.4603 39.775 55.586 39.4375C56.7681 39.1562 59.2447 39.0438 61.1022 39.2125V39.2125ZM57.7249 61.375C53.4471 57.1 52.7154 56.7062 52.04 57.1562C51.5334 57.4375 50.8017 58.1687 50.4639 58.675C49.9574 59.5187 50.4077 60.25 53.6723 63.4562L57.4435 67.2812L69.5452 55.1875L66.7308 52.375L57.7249 61.375Z" fill="#28BB76"/>
</g>
<defs>
<clipPath id="clip0_2159_903">
<rect width="120" height="120" rx="60" fill="white"/>
</clipPath>
</defs>
</svg>
