<svg width="120" height="120" viewBox="0 0 120 120" fill="none" xmlns="http://www.w3.org/2000/svg">
<g clip-path="url(#clip0_2159_849)">
<path d="M60 120C93.1371 120 120 93.1371 120 60C120 26.8629 93.1371 0 60 0C26.8629 0 0 26.8629 0 60C0 93.1371 26.8629 120 60 120Z" fill="#D5E8FF"/>
<g clip-path="url(#clip1_2159_849)">
<path d="M132.75 100.5L90.75 41.25L58.5 62.25L30.75 81.75L111.976 146.574L132.75 100.5Z" fill="#9ECBFF"/>
<path d="M57.1673 22.1073C57.3682 22.0342 57.7973 21.9155 58.1261 21.8425C58.5279 21.7603 59.1123 21.7329 59.9525 21.7603C60.7013 21.7785 61.4044 21.8516 61.7332 21.9429C62.0345 22.0251 62.6738 22.299 63.1486 22.5456C63.6235 22.7921 64.2718 23.1939 64.5823 23.4496C64.9019 23.6961 65.3677 24.1801 65.6233 24.518C65.879 24.865 66.2626 25.5133 66.4909 25.9607C66.71 26.4082 66.9566 27.0748 67.0388 27.4217C67.1392 27.8509 67.194 28.4536 67.194 29.248C67.194 30.0516 67.1392 30.636 67.0388 31.0743C66.9475 31.4213 66.7466 32.0057 66.5822 32.3527C66.4178 32.7088 66.1256 33.2385 65.9247 33.5398C65.7147 33.8411 65.3311 34.3068 65.0572 34.5808C64.7832 34.8547 64.281 35.2656 63.9248 35.4939C63.5687 35.7222 63.039 36.0144 62.7377 36.1514C62.4363 36.2883 61.9432 36.4618 61.6419 36.5349C61.3405 36.6171 60.8657 36.6993 60.5917 36.7358C60.3177 36.7632 59.9981 36.8362 59.8794 36.9001C59.7242 36.9823 59.6329 36.9823 59.4685 36.9001C59.3589 36.8454 58.9388 36.7449 58.537 36.6901C58.1352 36.6262 57.5964 36.5075 57.3499 36.4162C57.0942 36.334 56.5006 36.0601 56.0258 35.8226C55.3226 35.4574 55.003 35.22 54.3272 34.5442C53.5876 33.8137 53.4415 33.6037 52.9757 32.6723C52.6561 32.0148 52.4096 31.3665 52.3182 30.9373C52.2361 30.5629 52.163 29.9055 52.1539 29.4763C52.1447 29.0471 52.1904 28.3531 52.2634 27.924C52.3365 27.4948 52.4917 26.883 52.6105 26.5543C52.7383 26.2255 52.994 25.6959 53.1858 25.3672C53.3867 25.0384 53.7245 24.5454 53.9528 24.2714C54.1811 23.9975 54.6469 23.5592 54.9939 23.3035C55.3318 23.0387 55.8797 22.7008 56.2084 22.5364C56.5372 22.3721 56.9664 22.1803 57.1673 22.1073Z" fill="#3B6CA6"/>
<path d="M79.312 25.979C79.6407 25.8146 80.216 25.6229 80.5905 25.5498C81.0288 25.4494 81.5676 25.4128 82.0972 25.4402C82.5538 25.4585 83.1839 25.5315 83.5126 25.6046C83.8414 25.6868 84.435 25.9151 84.8368 26.1251C85.3481 26.3899 85.7682 26.7095 86.2522 27.1935C86.8092 27.7413 87.0284 28.0518 87.3663 28.7458C87.6494 29.3211 87.8411 29.8598 87.9233 30.3438C87.9964 30.7456 88.042 31.2204 88.0146 31.3939C87.9964 31.5674 88.0238 31.7683 88.0694 31.8231C88.1334 31.8961 88.1334 31.9874 88.0877 32.0514C88.0512 32.1153 87.9599 32.4532 87.8868 32.8093C87.8229 33.1654 87.6037 33.7955 87.3937 34.2246C87.1837 34.6538 86.8366 35.22 86.6266 35.4756C86.4257 35.7405 85.9965 36.1422 85.686 36.3614C85.3664 36.5897 84.8459 36.891 84.5172 37.0462C84.1884 37.2015 83.6131 37.3932 83.2387 37.4754C82.7456 37.585 82.289 37.6124 81.595 37.5759C80.9649 37.5485 80.4352 37.4572 80.0425 37.3293C79.7138 37.2197 79.1841 36.9823 78.8554 36.8088C78.5267 36.6262 77.9696 36.1879 77.6135 35.8318C77.2573 35.4756 76.819 34.9186 76.6364 34.5899C76.4629 34.2612 76.2254 33.7315 76.1158 33.4028C75.988 33.0102 75.8967 32.4805 75.8693 31.8505C75.8328 31.1656 75.8602 30.6999 75.9697 30.2068C76.0519 29.8324 76.2528 29.2298 76.4263 28.8828C76.5907 28.5266 76.9194 27.9879 77.1569 27.6683C77.3852 27.3578 77.8326 26.9104 78.1431 26.6821C78.4627 26.4538 78.9832 26.1342 79.312 25.979Z" fill="#3B6CA6"/>
<path d="M34.9586 26.0429C35.2965 25.8694 35.7896 25.6776 36.0453 25.6046H36.0544C36.3375 25.5224 36.9767 25.4676 37.6251 25.4676C38.3282 25.4585 38.9127 25.5041 39.2506 25.5955C39.5336 25.6685 40.045 25.8694 40.392 26.0429C40.7299 26.2073 41.2322 26.5177 41.5061 26.7278C41.7801 26.9378 42.2093 27.3578 42.4467 27.6774C42.6933 27.9879 43.0311 28.5266 43.1955 28.8828C43.3599 29.2298 43.5517 29.7503 43.6156 30.0242C43.6795 30.2981 43.7343 30.9739 43.7343 31.5309C43.7343 32.1883 43.6795 32.7362 43.5699 33.1289C43.4877 33.4576 43.2412 34.0511 43.0311 34.4529C42.7755 34.9552 42.4467 35.3843 42.0084 35.8226C41.5427 36.2975 41.15 36.5805 40.5473 36.891C40.0359 37.1558 39.4606 37.3658 39.0223 37.4572C38.6296 37.5393 38.0269 37.6033 37.6707 37.6033C37.3146 37.6033 36.7119 37.5393 36.3284 37.4572C35.8809 37.3658 35.3056 37.1558 34.7942 36.891C34.1915 36.5805 33.808 36.2975 33.3331 35.8226C32.9039 35.3935 32.566 34.9369 32.3104 34.4529C32.1003 34.0511 31.8538 33.4576 31.7716 33.1289C31.6803 32.7636 31.6163 32.1701 31.6163 31.5765C31.6072 31.0469 31.662 30.3712 31.7259 30.0699C31.7898 29.7685 31.9999 29.2115 32.1825 28.8371C32.3651 28.4627 32.6939 27.924 32.9222 27.6318C33.1505 27.3396 33.5614 26.9378 33.8354 26.7278C34.1093 26.5177 34.6116 26.2073 34.9586 26.0429Z" fill="#3B6CA6"/>
<path d="M48.3459 40.2879C48.629 40.2514 48.8847 40.1875 48.9212 40.1509C48.9668 40.1053 50.3275 40.0687 51.953 40.0687C54.2451 40.0687 54.9299 40.0961 54.9573 40.1783C54.9756 40.2422 56.0075 43.1095 57.2403 46.552C58.4822 49.9946 59.5415 52.8345 59.6055 52.871C59.6694 52.9075 59.7607 52.8892 59.8155 52.8253C59.8703 52.7614 60.9113 49.9398 62.1258 46.552C63.3495 43.1643 64.3814 40.3153 64.4271 40.224C64.5001 40.0779 64.7376 40.0687 67.4132 40.0687C69.0021 40.0687 70.3445 40.0961 70.381 40.1327C70.4267 40.1692 70.7372 40.2514 71.0659 40.3062C71.4038 40.3609 71.9608 40.5436 72.317 40.7171C72.6914 40.8997 73.1663 41.2376 73.4676 41.5298C73.7781 41.8311 74.1068 42.2785 74.3077 42.6712C74.4812 43.0273 74.673 43.5569 74.7278 43.8583C74.8009 44.2327 74.8283 47.2095 74.8283 53.4463C74.8283 59.5734 74.8009 62.6598 74.7278 63.0342C74.673 63.3356 74.5086 63.8378 74.3625 64.1483C74.2164 64.477 73.8694 64.9701 73.5772 65.2806C73.1845 65.6915 72.8466 65.938 71.5134 66.5955L70.1527 66.6411C69.0843 66.6777 68.7738 66.7142 68.7099 66.8238C68.6551 66.9059 68.6186 71.3256 68.6186 78.2837C68.6186 86.0819 68.5912 89.7801 68.5181 90.1545C68.4634 90.4558 68.2716 90.9855 68.0889 91.3416C67.8972 91.6886 67.5319 92.1908 67.2762 92.4556C66.9749 92.757 66.5365 93.0583 66.1347 93.2592C65.7329 93.451 65.1941 93.6244 64.7832 93.6884C64.2718 93.7614 63.9157 93.7614 63.3678 93.6884C62.8747 93.6244 62.4272 93.4875 61.998 93.2775C61.6419 93.104 61.1487 92.757 60.893 92.5195C60.6374 92.273 60.2995 91.8347 60.1442 91.5425C59.9342 91.1772 59.7972 91.022 59.6694 91.022C59.5415 91.022 59.4137 91.1681 59.2402 91.4968C59.1123 91.7616 58.7927 92.1908 58.537 92.4465C58.2722 92.7113 57.7882 93.0583 57.4138 93.2409C56.939 93.4783 56.528 93.6062 55.9984 93.6884C55.4231 93.7705 55.0761 93.7705 54.5555 93.6884C54.1081 93.6153 53.6332 93.4601 53.1858 93.2409C52.8022 93.04 52.3091 92.7022 52.0443 92.4374C51.7795 92.1634 51.4507 91.6977 51.2498 91.2959C51.058 90.9124 50.8663 90.3554 50.8206 90.0175C50.7567 89.6249 50.7202 85.5431 50.7202 78.1924C50.7202 71.2982 50.6836 66.9059 50.6288 66.8238C50.5649 66.7142 50.2544 66.6777 49.186 66.6411C47.8345 66.5955 47.8345 66.5955 47.104 66.2394C46.6382 66.0019 46.1999 65.7006 45.8712 65.3719C45.5515 65.0431 45.2411 64.6048 45.031 64.1757C44.7936 63.7008 44.6657 63.2808 44.6018 62.8059C44.5562 62.4133 44.5196 58.4411 44.5196 53.4463C44.5196 48.2596 44.5562 44.4975 44.6018 44.0866C44.6657 43.6117 44.8027 43.1917 45.0402 42.7169C45.2319 42.3242 45.5698 41.8402 45.8346 41.5754C46.1268 41.2832 46.5743 40.9728 47.0674 40.7262C47.5697 40.4797 48.0263 40.3153 48.3459 40.2879Z" fill="#3B6CA6"/>
<path d="M29.3516 40.9819C29.6804 40.8175 30.1552 40.6258 30.4018 40.5618C30.7397 40.4797 32.4108 40.4431 36.8671 40.4431C40.1637 40.434 42.8668 40.4523 42.8668 40.4797C42.8668 40.5071 42.7937 40.6349 42.6933 40.7719C42.6019 40.918 42.4193 41.2284 42.2915 41.4841C42.1728 41.7307 41.9445 42.2877 41.5427 43.493L41.5153 53.1723C41.497 61.2901 41.5153 62.952 41.6248 63.4908C41.6979 63.8378 41.8805 64.4587 42.0358 64.8605C42.191 65.2623 42.4924 65.8558 42.7024 66.1846C42.9124 66.5133 43.4238 67.116 43.8439 67.5269C44.2639 67.9469 44.6475 68.2665 44.6931 68.2391C44.7479 68.2117 44.8027 68.2574 44.8301 68.3304C44.8575 68.4035 44.8758 71.1155 44.8758 74.3572C44.8758 77.5988 44.8484 80.2652 44.8119 80.2835C44.7662 80.3017 44.7023 80.5209 44.6657 80.7583C44.6292 81.0048 44.4375 81.4888 44.2548 81.8358C44.063 82.1919 43.7617 82.5937 43.5517 82.7672C43.3508 82.9316 42.9398 83.1781 42.6385 83.3151C42.1636 83.5342 41.9719 83.5708 41.223 83.5708C40.4468 83.5799 40.2916 83.5525 39.7619 83.2968C39.4332 83.1416 39.004 82.8768 38.8031 82.6941C38.6022 82.5207 38.2917 82.1006 38.1182 81.7719C37.9447 81.434 37.7347 81.1601 37.6616 81.1601C37.5886 81.1601 37.3785 81.434 37.205 81.7719C37.0315 82.1006 36.721 82.5207 36.5201 82.6941C36.3192 82.8768 35.89 83.1416 35.5613 83.2968C35.0316 83.5525 34.8764 83.5799 34.1002 83.5708C33.3514 83.5708 33.1596 83.5342 32.6848 83.3151C32.3834 83.1781 31.9725 82.9316 31.7716 82.7672C31.5615 82.5937 31.2602 82.2011 31.0684 81.8358C30.8858 81.4888 30.7031 81.0231 30.6666 80.7948C30.6301 80.5665 30.5753 80.3382 30.5296 80.2926C30.484 80.2469 30.4383 76.3661 30.4018 63.1438L29.5617 62.7238C29.1051 62.4955 28.5572 62.1394 28.3471 61.9385C28.1371 61.7376 27.8083 61.3084 27.6166 60.9797C27.4157 60.6509 27.1965 60.1396 27.1143 59.8382C26.9956 59.3634 26.9773 58.3042 27.023 43.8583L27.4248 43.0365C27.6896 42.4794 27.9727 42.0685 28.2923 41.7489C28.548 41.4932 29.0229 41.1462 29.3516 40.9819Z" fill="#3B6CA6"/>
<path d="M76.956 41.2558C76.819 41.0275 76.6546 40.7536 76.5724 40.6349L76.4355 40.434H82.4534C86.1244 40.434 88.6813 40.4705 88.9826 40.5253C89.2566 40.571 89.7862 40.7627 90.1424 40.9362C90.5624 41.1371 90.9916 41.4385 91.3112 41.7581C91.6309 42.0777 91.9322 42.4977 92.1331 42.9177C92.3066 43.283 92.4893 43.8491 92.544 44.1779C92.5988 44.5431 92.6354 47.5017 92.6354 51.8026C92.6354 56.1035 92.5988 59.0621 92.544 59.4273C92.4893 59.7561 92.3066 60.3222 92.1331 60.6783C91.9322 61.0984 91.6309 61.5275 91.3295 61.8198C91.0647 62.0846 90.5533 62.459 90.188 62.6416C89.8319 62.8333 89.4757 62.9886 89.4118 62.9886C89.357 62.9886 89.2383 63.0342 89.1653 63.0799C89.0465 63.1529 89.0191 64.2852 88.937 81.0231L88.6447 81.6166C88.4895 81.9454 88.179 82.3837 87.9599 82.6028C87.7498 82.822 87.3572 83.1051 87.1106 83.2238C86.8549 83.3425 86.3892 83.4886 86.0604 83.5434C85.613 83.6256 85.3116 83.6256 84.8276 83.5434C84.4715 83.4795 83.9875 83.3242 83.7409 83.1872C83.4944 83.0503 83.1474 82.7946 82.9647 82.6211C82.7821 82.4476 82.5081 82.055 82.362 81.7536C82.2159 81.4523 82.0424 81.1783 81.9968 81.1418C81.9511 81.1053 81.8872 81.0962 81.8598 81.1053C81.8324 81.1236 81.6954 81.3792 81.5402 81.6714C81.3941 81.9728 81.1018 82.3837 80.8827 82.5937C80.6635 82.8129 80.216 83.1142 79.869 83.2786C79.3211 83.5434 79.175 83.5708 78.3897 83.5708C77.6135 83.5799 77.4582 83.5434 76.9286 83.2968C76.5998 83.1416 76.1706 82.8768 75.9697 82.6941C75.7688 82.5207 75.4584 82.1097 74.9652 81.2057L74.9196 68.0108L75.2118 67.8008C75.3762 67.6912 75.7688 67.2895 76.0884 66.9151C76.4355 66.5042 76.8281 65.9015 77.0656 65.4084C77.2847 64.9518 77.5587 64.2578 77.8783 63.1255L77.9148 54.0855C77.9331 47.8761 77.9148 44.7714 77.8418 44.1779C77.787 43.703 77.6226 42.936 77.4674 42.4886C77.3121 42.032 77.0838 41.4841 76.956 41.2558Z" fill="#3B6CA6"/>
</g>
</g>
<defs>
<clipPath id="clip0_2159_849">
<rect width="120" height="120" rx="60" fill="white"/>
</clipPath>
<clipPath id="clip1_2159_849">
<rect width="96" height="96" fill="white" transform="translate(24 21.75)"/>
</clipPath>
</defs>
</svg>
