<svg width="120" height="120" viewBox="0 0 120 120" fill="none" xmlns="http://www.w3.org/2000/svg">
<g clip-path="url(#clip0_2159_873)">
<path d="M60 120C93.1371 120 120 93.1371 120 60C120 26.8629 93.1371 0 60 0C26.8629 0 0 26.8629 0 60C0 93.1371 26.8629 120 60 120Z" fill="#FFF7B3"/>
<g clip-path="url(#clip1_2159_873)">
<path d="M132.75 100.5L87 27L58.5 62.25V92.25L111.976 146.574L132.75 100.5Z" fill="#FFEF64"/>
</g>
<path d="M32.0488 57.5854V27H86.7805V57.5854H94.8293L59.4146 93L24 57.5854H32.0488Z" fill="#E2CF1D"/>
<path d="M45.1198 44.3484H48.0818V45.7778H43.3169V36.7889H45.1198V44.3484Z" fill="#1A1A1A"/>
<path d="M53.4002 45.868C52.5588 45.868 51.7862 45.6705 51.0822 45.2756C50.3782 44.8806 49.8201 44.3355 49.408 43.6401C48.9959 42.9361 48.7899 42.1419 48.7899 41.2576C48.7899 40.3819 48.9959 39.5964 49.408 38.9009C49.8201 38.1969 50.3782 37.6475 51.0822 37.2525C51.7862 36.8576 52.5588 36.6602 53.4002 36.6602C54.2502 36.6602 55.0228 36.8576 55.7183 37.2525C56.4223 37.6475 56.976 38.1969 57.3795 38.9009C57.7916 39.5964 57.9977 40.3819 57.9977 41.2576C57.9977 42.1419 57.7916 42.9361 57.3795 43.6401C56.976 44.3355 56.4223 44.8806 55.7183 45.2756C55.0143 45.6705 54.2416 45.868 53.4002 45.868ZM53.4002 44.2582C53.9411 44.2582 54.4176 44.138 54.8297 43.8976C55.2418 43.6486 55.5637 43.2966 55.7955 42.8416C56.0273 42.3866 56.1432 41.8586 56.1432 41.2576C56.1432 40.6566 56.0273 40.1329 55.7955 39.6865C55.5637 39.2315 55.2418 38.8838 54.8297 38.6434C54.4176 38.403 53.9411 38.2828 53.4002 38.2828C52.8593 38.2828 52.3785 38.403 51.9579 38.6434C51.5458 38.8838 51.2238 39.2315 50.992 39.6865C50.7602 40.1329 50.6443 40.6566 50.6443 41.2576C50.6443 41.8586 50.7602 42.3866 50.992 42.8416C51.2238 43.2966 51.5458 43.6486 51.9579 43.8976C52.3785 44.138 52.8593 44.2582 53.4002 44.2582Z" fill="#1A1A1A"/>
<path d="M71.3542 36.7889L68.843 45.7778H66.7181L65.0311 39.3774L63.2668 45.7778L61.1548 45.7907L58.7337 36.7889H60.6654L62.2494 43.7688L64.0781 36.7889H66.0871L67.8128 43.7302L69.4096 36.7889H71.3542Z" fill="#1A1A1A"/>
<path d="M49.8718 52.4486C49.8718 52.9294 49.7559 53.3802 49.5241 53.8008C49.3009 54.2215 48.9446 54.5606 48.4552 54.8182C47.9745 55.0758 47.3649 55.2045 46.6266 55.2045H45.1198V58.6559H43.3169V49.667H46.6266C47.322 49.667 47.9144 49.7872 48.4037 50.0276C48.8931 50.268 49.258 50.5985 49.4984 51.0192C49.7473 51.4399 49.8718 51.9164 49.8718 52.4486ZM46.5493 53.7493C47.0472 53.7493 47.4164 53.6377 47.6568 53.4145C47.8972 53.1827 48.0174 52.8607 48.0174 52.4486C48.0174 51.5729 47.528 51.1351 46.5493 51.1351H45.1198V53.7493H46.5493Z" fill="#1A1A1A"/>
<path d="M55.788 58.6559L53.8048 55.153H52.9548V58.6559H51.1519V49.667H54.5259C55.2213 49.667 55.8137 49.7915 56.3031 50.0404C56.7925 50.2808 57.1573 50.6114 57.3977 51.0321C57.6467 51.4442 57.7712 51.9078 57.7712 52.4229C57.7712 53.0153 57.5995 53.5519 57.2561 54.0326C56.9127 54.5048 56.4018 54.8311 55.7236 55.0114L57.8742 58.6559H55.788ZM52.9548 53.8008H54.4615C54.9509 53.8008 55.3158 53.6849 55.5562 53.4531C55.7966 53.2127 55.9168 52.8822 55.9168 52.4615C55.9168 52.0494 55.7966 51.7318 55.5562 51.5085C55.3158 51.2767 54.9509 51.1608 54.4615 51.1608H52.9548V53.8008Z" fill="#1A1A1A"/>
<path d="M61.2048 49.667V58.6559H59.4019V49.667H61.2048Z" fill="#1A1A1A"/>
<path d="M62.5482 54.1485C62.5482 53.2643 62.7457 52.4744 63.1406 51.779C63.5442 51.075 64.0893 50.5298 64.7762 50.1435C65.4716 49.7485 66.2485 49.5511 67.1071 49.5511C68.1116 49.5511 68.9916 49.8086 69.7471 50.3238C70.5026 50.8389 71.0306 51.5515 71.3311 52.4615H69.2577C69.0517 52.0323 68.7598 51.7103 68.382 51.4957C68.0128 51.281 67.5836 51.1737 67.0942 51.1737C66.5705 51.1737 66.1026 51.2982 65.6905 51.5472C65.287 51.7876 64.9693 52.131 64.7375 52.5774C64.5143 53.0239 64.4027 53.5476 64.4027 54.1485C64.4027 54.7409 64.5143 55.2646 64.7375 55.7197C64.9693 56.1661 65.287 56.5138 65.6905 56.7628C66.1026 57.0032 66.5705 57.1234 67.0942 57.1234C67.5836 57.1234 68.0128 57.0161 68.382 56.8014C68.7598 56.5782 69.0517 56.252 69.2577 55.8227H71.3311C71.0306 56.7413 70.5026 57.4582 69.7471 57.9733C69.0002 58.4799 68.1202 58.7331 67.1071 58.7331C66.2485 58.7331 65.4716 58.54 64.7762 58.1536C64.0893 57.7587 63.5442 57.2135 63.1406 56.5181C62.7457 55.8227 62.5482 55.0328 62.5482 54.1485Z" fill="#1A1A1A"/>
<path d="M74.6739 51.1222V53.3759H77.7003V54.8053H74.6739V57.1878H78.0866V58.6559H72.871V49.6541H78.0866V51.1222H74.6739Z" fill="#1A1A1A"/>
<path d="M55.1792 64.451C55.1792 63.7985 55.3681 63.2877 55.7458 62.9185C56.1322 62.5493 56.6258 62.3647 57.2268 62.3647C57.8278 62.3647 58.3171 62.5493 58.6949 62.9185C59.0812 63.2877 59.2744 63.7985 59.2744 64.451C59.2744 65.1121 59.0812 65.6272 58.6949 65.9964C58.3171 66.3655 57.8278 66.5501 57.2268 66.5501C56.6258 66.5501 56.1322 66.3655 55.7458 65.9964C55.3681 65.6272 55.1792 65.1121 55.1792 64.451ZM63.4469 62.5193L58.3858 71.5339H56.6344L61.6826 62.5193H63.4469ZM57.2139 63.4465C56.7417 63.4465 56.5056 63.7813 56.5056 64.451C56.5056 65.1292 56.7417 65.4684 57.2139 65.4684C57.4457 65.4684 57.626 65.3868 57.7548 65.2237C57.8836 65.052 57.948 64.7944 57.948 64.451C57.948 63.7813 57.7033 63.4465 57.2139 63.4465ZM60.8327 69.5893C60.8327 68.9283 61.0215 68.4174 61.3993 68.0568C61.7856 67.6877 62.2793 67.5031 62.8803 67.5031C63.4812 67.5031 63.9663 67.6877 64.3355 68.0568C64.7132 68.4174 64.9021 68.9283 64.9021 69.5893C64.9021 70.2504 64.7132 70.7655 64.3355 71.1347C63.9663 71.5039 63.4812 71.6884 62.8803 71.6884C62.2707 71.6884 61.777 71.5039 61.3993 71.1347C61.0215 70.7655 60.8327 70.2504 60.8327 69.5893ZM62.8674 68.5848C62.378 68.5848 62.1333 68.9197 62.1333 69.5893C62.1333 70.2676 62.378 70.6067 62.8674 70.6067C63.3482 70.6067 63.5886 70.2676 63.5886 69.5893C63.5886 68.9197 63.3482 68.5848 62.8674 68.5848Z" fill="#1A1A1A"/>
</g>
<defs>
<clipPath id="clip0_2159_873">
<rect width="120" height="120" rx="60" fill="white"/>
</clipPath>
<clipPath id="clip1_2159_873">
<rect width="96" height="96" fill="white" transform="translate(24 21.75)"/>
</clipPath>
</defs>
</svg>
