<svg width="35" height="35" viewBox="0 0 35 35" fill="none" xmlns="http://www.w3.org/2000/svg">
<g id="Iconsax/Linear/arrowsquareleft">
<path id="Vector (Stroke)" fill-rule="evenodd" clip-rule="evenodd" d="M4.75609 4.75612C6.60618 2.90602 9.40515 2.16666 13.125 2.16666H21.875C25.5948 2.16666 28.3937 2.90602 30.2438 4.75612C32.0939 6.60621 32.8333 9.40518 32.8333 13.125V21.875C32.8333 25.5948 32.0939 28.3938 30.2438 30.2439C28.3937 32.094 25.5948 32.8333 21.875 32.8333H13.125C9.40515 32.8333 6.60618 32.094 4.75609 30.2439C2.90599 28.3938 2.16663 25.5948 2.16663 21.875V13.125C2.16663 9.40518 2.90599 6.60621 4.75609 4.75612ZM5.81675 5.81678C4.38559 7.24793 3.66663 9.55313 3.66663 13.125V21.875C3.66663 25.4468 4.38559 27.752 5.81675 29.1832C7.2479 30.6144 9.5531 31.3333 13.125 31.3333H21.875C25.4468 31.3333 27.752 30.6144 29.1832 29.1832C30.6143 27.752 31.3333 25.4468 31.3333 21.875V13.125C31.3333 9.55313 30.6143 7.24793 29.1832 5.81678C27.752 4.38562 25.4468 3.66666 21.875 3.66666H13.125C9.5531 3.66666 7.2479 4.38562 5.81675 5.81678Z" fill="white"/>
<path id="Vector (Stroke)_2" fill-rule="evenodd" clip-rule="evenodd" d="M19.8671 11.821C20.1604 12.1135 20.1611 12.5884 19.8686 12.8817L15.2634 17.5L19.8686 22.1183C20.1611 22.4116 20.1604 22.8865 19.8671 23.179C19.5738 23.4715 19.099 23.4708 18.8065 23.1775L13.6731 18.0296C13.3813 17.7369 13.3813 17.2631 13.6731 16.9704L18.8065 11.8225C19.099 11.5292 19.5738 11.5285 19.8671 11.821Z" fill="white"/>
</g>
</svg>
