<svg width="80" height="73" viewBox="0 0 80 73" fill="none" xmlns="http://www.w3.org/2000/svg">
<g id="logo (1) 2" clip-path="url(#clip0_4366_36769)">
<g id="Group 2">
<path id="Vector" d="M69.9234 49.2625C69.9013 49.1735 69.879 49.0846 69.8457 48.9956C69.6678 48.4619 69.3675 47.9727 68.9895 47.5391C66.9214 45.1375 62.4407 44.1034 62.4407 44.1034C58.0044 43.592 57.6041 40.1452 57.6041 40.1452C59.7277 38.4441 60.6061 36.0424 60.6061 36.0424C63.7749 34.7304 62.9299 30.1607 62.9299 30.1607C62.4518 29.6492 61.5178 24.6792 61.5178 24.6792C57.1038 15.9511 49.1096 19.6425 47.742 20.354C47.6975 20.3763 47.6531 20.3985 47.6308 20.4207C47.5752 20.454 47.5418 20.4763 47.5418 20.4763C46.5857 21.944 46.1076 23.8008 45.9297 25.7799C45.9853 25.8021 46.0409 25.8244 46.0853 25.8466C46.4189 26.0023 46.6745 26.2136 46.708 26.4693V29.0488C46.9303 28.1037 47.3306 27.4255 48.1089 27.3922C48.1089 27.3922 48.1089 27.3922 48.12 27.4032C48.1645 27.4032 48.22 27.3922 48.2756 27.3922C48.2756 27.3922 50.1103 28.9043 48.8761 32.2843C48.8761 32.2843 48.2868 34.7971 46.8414 34.6859C46.7968 34.6859 46.7524 34.6859 46.6968 34.6859C46.6968 34.6859 46.6524 34.6859 46.6301 34.6859C46.6301 34.7304 46.6412 34.7638 46.6524 34.8082C46.8525 35.82 47.0637 36.754 47.2527 37.5434C47.2972 37.7214 47.3417 37.8993 47.3751 38.0771C47.5863 38.9666 47.7642 39.6448 47.842 40.034C47.842 40.0673 47.842 40.1007 47.8531 40.123C47.8531 40.1896 47.8754 40.2453 47.8754 40.2898C47.9421 41.4016 47.1972 42.2911 46.997 42.5024C46.9637 42.5357 46.9526 42.5579 46.9526 42.5579L47.6197 42.7136L48.2756 42.8581C48.8094 42.2911 49.0984 41.5795 49.2207 40.7678C51.9892 42.2133 54.4576 41.913 56.7369 40.6011C56.9815 42.4801 57.9932 43.5697 59.3831 44.2813C59.5054 46.2493 58.5159 47.806 57.1149 49.218L57.0815 49.2514L56.9926 49.6183L56.9148 49.963H69.9346C69.9346 49.5404 69.9346 49.2625 69.9346 49.2625M49.0984 39.2668C49.0317 39.2223 48.965 39.189 48.8983 39.1445C48.2423 38.8777 47.7642 38.533 47.5418 38.066C47.464 37.8993 47.4195 37.7324 47.4195 37.5323C47.4195 37.5101 47.4195 37.4878 47.4195 37.4656C48.7427 37.6991 49.7655 37.3655 50.5661 36.5539C50.5661 36.5539 50.5772 36.5428 50.5883 36.5316C50.5216 36.5316 50.466 36.5428 50.4104 36.5539C49.7655 36.5984 49.2986 36.3871 49.054 35.8757C48.776 35.2863 48.7982 34.2746 49.2096 32.7291C49.9212 30.7611 49.988 28.5818 49.6988 26.2691C49.6655 26.0578 49.6432 25.8466 49.6099 25.6354C49.6099 25.6242 49.6099 25.602 49.6099 25.5909C49.5209 24.9794 49.3986 24.3679 49.2652 23.7452C49.2986 23.7452 49.3319 23.7563 49.3542 23.7674C52.0782 24.3679 54.591 24.4902 56.748 23.7452C58.2268 23.4339 59.1829 24.4456 59.5165 27.0586C59.8945 29.3156 59.7945 31.417 58.716 33.2072C59.3942 33.3517 59.9612 32.5289 60.2725 29.6269C60.8396 28.4373 61.3955 28.4262 61.9403 30.283C62.2628 32.3399 61.7959 34.0856 59.8279 35.2419C57.304 39.9228 54.0462 42.2689 49.1207 39.2557" fill="#F05D22"/>
<path id="Vector_2" d="M30.5991 29.3498C30.6547 28.5825 30.7214 27.5819 30.777 26.6368L30.5991 29.3498ZM33.0563 42.6031V42.5587V42.4808L31.9556 40.4239L32.2891 40.1126L32.3558 40.0459L33.7011 38.7784L32.5115 35.9209L30.6768 31.0843L30.5212 30.684L30.7547 31.4845L31.6998 34.7646V36.4768L32.5448 37.1995L32.4336 37.5331L32.4114 37.5998C33.034 37.8444 29.0313 40.5684 28.1975 40.2461V39.0675H26.3629V40.1238C23.3053 39.6456 21.3151 37.9889 20.3033 35.2538C20.3033 35.2538 16.334 33.0078 18.9024 29.1274C18.9024 29.1274 20.3367 30.0391 20.5034 33.586C20.5034 33.586 22.2601 35.6095 21.1817 32.463C20.1031 29.3275 20.0475 21.9114 25.1288 23.746C25.1288 23.746 27.8973 28.2156 30.2322 26.0253L30.3545 26.1365L30.5101 26.2699L30.8103 26.5478C30.8437 25.9363 30.877 25.3471 30.8881 24.869C30.8881 24.869 30.8326 24.869 30.7325 24.8911C30.688 24.8911 30.6324 24.9023 30.5657 24.9134C29.8763 24.9913 28.3198 25.0691 28.0973 24.1017V24.0462L30.7991 23.9573H30.8881C30.8881 23.846 30.8881 23.7682 30.8659 23.7237C30.8659 23.7015 30.8659 23.6904 30.8548 23.6904C30.8103 23.6237 30.9104 23.3568 31.1105 22.9899C31.2439 22.7453 31.3996 22.4562 31.5886 22.156C32.2002 21.1442 32.9784 19.9656 33.123 19.7432C33.134 19.721 33.1452 19.7099 33.1452 19.7099C33.1119 19.6877 33.0896 19.6543 33.0563 19.6321C30.7103 17.5529 26.7298 17.9643 26.7076 18.1644C26.6853 18.3646 23.0829 19.4319 23.0829 19.4319C18.9135 20.0213 17.8905 23.657 17.9351 28.3158C16.4229 32.1406 17.1456 34.62 19.6584 36.032C20.1365 37.3885 21.1372 38.845 22.427 40.3572C22.5493 42.7033 18.4576 44.3044 13.343 45.7276C12.209 46.3057 11.3751 46.9839 10.8414 47.74C10.4522 48.2959 10.2188 48.8963 10.1187 49.5413C10.0965 49.6746 10.0853 49.8192 10.0742 49.9638H24.5394C24.595 48.4516 25.0732 45.9832 27.5526 45.6942C27.5526 45.6942 27.5526 45.7053 27.5637 45.7164C27.6193 45.7164 27.6637 45.6942 27.7194 45.6942C28.6978 47.551 29.7763 49.0409 31.0216 49.7747L32.8338 49.6857C30.7547 48.4294 28.9646 47.0395 28.3309 45.116C29.8986 44.4488 31.5108 43.9375 33.1674 43.715L33.0674 42.6031H33.0563ZM30.9214 43.2147C30.688 43.3037 30.4212 43.4148 30.1209 43.526C28.2197 44.2932 25.2732 45.5941 24.0947 46.6837C23.8279 46.9283 23.661 47.1618 23.6055 47.3731C23.6055 47.3731 23.5944 47.3508 23.5721 47.3064C23.3387 46.8839 22.0378 44.4934 22.1824 43.4927C22.1824 43.4927 23.372 42.025 23.372 41.2245C24.6061 42.3252 25.8737 43.1146 27.2079 43.148C28.9313 42.6031 30.1543 41.8693 30.9993 40.991C31.1661 41.6914 31.4107 42.3475 31.8554 42.87C31.8554 42.87 31.4997 43.0035 30.9214 43.2258M27.3302 46.2278C25.8626 46.9506 25.2177 48.2625 25.1509 49.9859H30.0653C30.0653 49.9859 30.1766 49.9749 30.2322 49.9638C28.9313 48.8963 28.0196 47.6288 27.3414 46.2278M30.877 24.024V24.2686V24.8911C30.877 24.6465 30.877 24.4353 30.877 24.2575C30.877 24.1796 30.877 24.1017 30.877 24.035" fill="#F05D22"/>
<path id="Vector_3" d="M30.3852 49.9315C30.3852 49.9315 30.2852 49.9426 30.2296 49.9537H25.1484C25.2151 48.2303 25.86 46.9183 27.3276 46.1956C27.3721 46.1734 27.4166 46.1511 27.4611 46.1289C28.1393 47.5521 29.0621 48.853 30.3852 49.9315Z" fill="#249D64"/>
<path id="Vector_4" d="M30.3852 49.9315C30.3852 49.9315 30.2852 49.9426 30.2296 49.9537H25.1484C25.2151 48.2303 25.86 46.9183 27.3276 46.1956C27.3721 46.1734 27.4166 46.1511 27.4611 46.1289C28.1393 47.5521 29.0621 48.853 30.3852 49.9315Z" fill="#249D64"/>
<path id="Vector_5" d="M57.1657 49.6182C57.1657 49.4847 57.1435 49.3403 57.1213 49.2068C56.8767 47.2944 55.9983 45.7267 53.8413 44.8595C52.0179 44.1145 49.9276 43.4029 47.6149 42.7024C47.4481 42.6579 47.2814 42.6023 47.1146 42.5579C47.0701 42.5357 47.0368 42.5245 47.0034 42.5023C46.1472 42.1021 45.5135 41.635 45.7247 40.9012C46.3697 40.8456 47.0923 40.5787 47.8595 40.1229C47.904 40.0895 47.9596 40.0562 48.0041 40.0339C48.3598 39.8227 48.7157 39.567 49.0936 39.2668C49.1048 39.2668 49.1271 39.2445 49.1382 39.2334C49.0603 39.2001 48.9825 39.1778 48.8936 39.1445C48.2375 38.8776 47.7594 38.533 47.5371 38.0659C47.4593 37.9103 47.4148 37.7324 47.4148 37.5323C47.4148 37.51 47.4148 37.4878 47.4148 37.4655C48.7379 37.699 49.7608 37.3655 50.5613 36.5538C50.5613 36.5538 50.5724 36.5427 50.5835 36.5316C50.6391 36.476 50.6837 36.4204 50.7393 36.3648C50.0721 36.3759 49.5384 36.2425 49.2159 35.8645C48.849 35.4308 48.7713 34.6859 49.0936 33.474C49.9498 30.6276 50.1055 28.2926 49.8609 26.2579C49.8386 26.0356 49.8053 25.8354 49.7719 25.6242C49.7719 25.6131 49.7719 25.5908 49.7719 25.5797C49.6718 24.946 49.5273 24.3344 49.3494 23.7563C49.1159 22.9557 48.8269 22.1885 48.5044 21.4435C48.5044 21.4435 48.2931 21.01 47.815 20.3873C47.8039 20.3651 47.7817 20.3428 47.7594 20.3206C46.681 18.953 44.335 16.796 40.1766 16.5625C36.6854 16.7627 34.4728 18.3081 33.2053 19.609C33.1719 19.6424 33.1386 19.6868 33.1052 19.7202C32.2269 20.6541 31.8488 21.4325 31.8488 21.4325C31.7487 21.666 31.6487 21.8994 31.5597 22.1329C31.4485 22.4109 31.3485 22.6888 31.2485 22.9669C31.1706 23.2115 31.0816 23.4561 31.0149 23.7007C30.9927 23.7785 30.9704 23.8563 30.9482 23.9341C30.926 24.0231 30.9037 24.1009 30.8815 24.1899C30.8815 24.1899 30.8815 24.201 30.8815 24.2121C30.8259 24.4234 30.7703 24.6347 30.7258 24.857C30.7258 24.857 30.7258 24.8681 30.7258 24.8793C30.6368 25.2684 30.5702 25.6798 30.5145 26.0912C30.5145 26.1356 30.5145 26.1801 30.5035 26.2246C30.3256 27.6589 30.3589 29.2378 30.6814 31.0389C30.7036 31.1724 30.7258 31.2947 30.7591 31.4281C30.8926 32.073 31.0594 32.7513 31.2706 33.4517C31.8821 35.7199 31.0594 36.3648 29.6251 36.3314C30.3367 37.1542 31.2595 37.5656 32.4269 37.4878C32.4825 37.4878 32.5382 37.4878 32.5938 37.4767C32.705 37.4767 32.8161 37.4433 32.9384 37.4321C32.9384 38.2661 32.2713 38.822 31.215 39.2001C31.6042 39.5114 31.9933 39.7782 32.3602 40.0006C32.3936 40.0228 32.4269 40.0451 32.4603 40.0562C33.2386 40.5231 33.9613 40.8012 34.6285 40.8567C34.8508 41.6239 34.1615 42.1021 33.2497 42.5134C33.1942 42.5246 33.1497 42.5467 33.1052 42.5579C32.4269 42.758 31.771 42.9692 31.1372 43.1694C30.8148 43.2695 30.4924 43.3807 30.1699 43.4807C28.8579 43.9143 27.6349 44.3591 26.523 44.8149C25.4334 45.2597 24.6663 45.8712 24.1437 46.6273C24.0102 46.8275 23.8879 47.0387 23.7879 47.25C23.4098 48.0394 23.2319 48.9399 23.1875 49.9184H24.744C24.7996 48.4396 25.2666 46.0381 27.6015 45.6711C27.6571 45.6711 27.7016 45.6489 27.7572 45.6489C28.7467 47.5057 29.8141 48.9955 31.0594 49.7293C31.0594 49.7293 31.0594 49.7293 31.0705 49.7293L33.0385 49.6293C30.9593 48.373 29.1692 46.9831 28.5466 45.0595C30.1143 44.3924 31.7265 43.881 33.3832 43.6475C33.4054 43.6475 33.4276 43.6475 33.4499 43.6475C35.1177 42.9136 36.274 41.724 36.6075 39.7671C37.6416 40.3341 38.7423 40.8233 40.2211 40.8456C41.6999 40.8233 42.8006 40.3341 43.8346 39.7671C44.1681 41.7129 45.3245 42.9136 46.9923 43.6475C48.6823 43.8699 50.3056 44.3924 51.8956 45.0595C51.2729 46.9831 49.4717 48.373 47.4037 49.6293L49.3717 49.7293C50.628 48.9955 51.6954 47.4946 52.685 45.6377C55.1533 45.9268 55.6314 48.4063 55.6981 49.9073H57.2547C57.2547 49.785 57.2436 49.6738 57.2324 49.5626M40.2322 39.567C35.7292 39.9005 33.6834 34.608 33.6834 34.608C32.1267 34.886 31.5041 32.2175 31.5041 32.2175C30.2811 28.8374 32.1046 27.3253 32.1046 27.3253C33.1274 27.3698 33.4832 28.4928 33.6722 29.916V26.3914C33.7945 25.4462 36.7298 25.2462 36.7298 25.2462C36.4963 23.4782 38.531 22.1107 38.531 22.1107C38.6311 23.1336 37.9084 24.668 37.9084 24.668H42.5337C42.5337 24.668 41.811 23.1336 41.9111 22.1107C41.9111 22.1107 43.9458 23.4782 43.7123 25.2462C43.7123 25.2462 45.091 25.3462 45.9916 25.7131C46.0472 25.7354 46.1028 25.7576 46.1472 25.7798C46.4808 25.9355 46.7366 26.1468 46.7699 26.4025V29.9271C46.9478 28.5817 47.2814 27.4921 48.1819 27.3475C48.2264 27.3475 48.2821 27.3365 48.3376 27.3365C48.3376 27.3365 50.1722 28.8486 48.938 32.2286C48.938 32.2286 48.3487 34.7414 46.9033 34.6303C46.8811 34.6303 46.87 34.6303 46.8477 34.6303C46.8143 34.6303 46.7922 34.6303 46.7588 34.6303C46.7588 34.6303 46.7588 34.6303 46.7588 34.6525C46.7588 34.6525 46.7366 34.7081 46.7143 34.7749C46.3585 35.5976 44.3016 39.9005 40.2322 39.6003" fill="#249D64"/>
<path id="Vector_6" d="M30.3852 49.9315C30.3852 49.9315 30.2852 49.9426 30.2296 49.9537H25.1484C25.2151 48.2303 25.86 46.9183 27.3276 46.1956C27.3721 46.1734 27.4166 46.1511 27.4611 46.1289C28.1393 47.5521 29.0621 48.853 30.3852 49.9315Z" fill="#249D64"/>
<path id="Vector_7" d="M55.1939 49.9537H50.1127C50.1127 49.9537 50.0126 49.9426 49.957 49.9315C51.2802 48.853 52.203 47.5521 52.8813 46.1289C54.4489 46.8405 55.1272 48.1748 55.1939 49.9537Z" fill="#249D64"/>
<path id="Vector_8" d="M40.0044 0.492188C18.4234 0.492188 0.867188 18.0486 0.867188 39.6299C0.867188 43.21 1.34529 46.6679 2.24589 49.9591H6.33751C5.33684 46.6902 4.79203 43.2211 4.79203 39.6299C4.79203 20.2166 20.5915 4.41707 40.0044 4.41707C59.4174 4.41707 75.2169 20.2166 75.2169 39.6299C75.2169 43.2211 74.672 46.6902 73.6714 49.9591H77.763C78.6636 46.6679 79.1418 43.1989 79.1418 39.6299C79.1418 18.0486 61.5855 0.492188 40.0044 0.492188Z" fill="#249D64"/>
<path id="Vector_9" d="M11.5502 58.7562C11.5502 58.7562 11.5502 58.823 11.5058 58.823H9.74907C9.74907 58.823 9.69348 58.8007 9.70459 58.7562L10.5941 55.7208C10.5941 55.7208 10.6052 55.6875 10.6274 55.6875C10.6385 55.6875 10.6497 55.6986 10.6608 55.7208L11.5502 58.7562Z" fill="#F05D22"/>
<path id="Vector_10" d="M43.2952 58.7561L42.4058 55.7206C42.4058 55.7206 42.3835 55.6762 42.3724 55.6873C42.3502 55.6873 42.3391 55.6985 42.3391 55.7206L41.4496 58.7561C41.4496 58.7561 41.4607 58.8228 41.5052 58.8228H43.2508C43.2508 58.8228 43.3175 58.8005 43.2952 58.7561ZM43.2952 58.7561L42.4058 55.7206C42.4058 55.7206 42.3835 55.6762 42.3724 55.6873C42.3502 55.6873 42.3391 55.6985 42.3391 55.7206L41.4496 58.7561C41.4496 58.7561 41.4607 58.8228 41.5052 58.8228H43.2508C43.2508 58.8228 43.3175 58.8005 43.2952 58.7561ZM43.2952 58.7561L42.4058 55.7206C42.4058 55.7206 42.3835 55.6762 42.3724 55.6873C42.3502 55.6873 42.3391 55.6985 42.3391 55.7206L41.4496 58.7561C41.4496 58.7561 41.4607 58.8228 41.5052 58.8228H43.2508C43.2508 58.8228 43.3175 58.8005 43.2952 58.7561ZM59.8508 55.7206C59.8508 55.7206 59.8508 55.6762 59.8175 55.6873C59.8063 55.6873 59.7952 55.6985 59.784 55.7206L58.9058 58.7561C58.9058 58.7561 58.9057 58.8228 58.9502 58.8228H60.7069C60.7069 58.8228 60.7625 58.8005 60.7514 58.7561L59.8508 55.7206ZM59.8508 55.7206C59.8508 55.7206 59.8508 55.6762 59.8175 55.6873C59.8063 55.6873 59.7952 55.6985 59.784 55.7206L58.9058 58.7561C58.9058 58.7561 58.9057 58.8228 58.9502 58.8228H60.7069C60.7069 58.8228 60.7625 58.8005 60.7514 58.7561L59.8508 55.7206ZM43.2952 58.7561L42.4058 55.7206C42.4058 55.7206 42.3835 55.6762 42.3724 55.6873C42.3502 55.6873 42.3391 55.6985 42.3391 55.7206L41.4496 58.7561C41.4496 58.7561 41.4607 58.8228 41.5052 58.8228H43.2508C43.2508 58.8228 43.3175 58.8005 43.2952 58.7561ZM79.3638 50.6172H0.644531L4.02457 57.4219L0.644531 64.2264H79.3638L75.9838 57.4219L79.3638 50.6172ZM14.2981 61.5357H12.4969C12.408 61.5357 12.3524 61.5023 12.3301 61.4245L12.0299 60.3683C12.0299 60.3683 11.9965 60.3237 11.9632 60.3237H9.28364C9.28364 60.3237 9.23916 60.346 9.22805 60.3683L8.91673 61.4245C8.8945 61.5023 8.8389 61.5357 8.76107 61.5357H6.95986C6.90427 61.5357 6.87092 61.5246 6.84868 61.5023C6.82645 61.469 6.82645 61.4245 6.83756 61.3689L9.35035 53.4191C9.38371 53.3413 9.42819 53.3079 9.50601 53.3079H11.7297C11.8075 53.3079 11.8632 53.3413 11.8854 53.4191L14.4204 61.3689C14.4204 61.3689 14.4315 61.4134 14.4315 61.4356C14.4315 61.5023 14.3871 61.5357 14.2981 61.5357ZM21.1916 61.4023C21.1916 61.4023 21.1805 61.469 21.1472 61.5023C21.1249 61.5246 21.0916 61.5357 21.047 61.5357H15.4322C15.4322 61.5357 15.3544 61.5246 15.3321 61.5023C15.2988 61.469 15.2877 61.4356 15.2877 61.4023V53.4413C15.2877 53.4413 15.2988 53.3746 15.3321 53.3413C15.3544 53.319 15.3877 53.3079 15.4322 53.3079H17.0999C17.0999 53.3079 17.1667 53.3079 17.2001 53.3413C17.2222 53.3746 17.2445 53.408 17.2445 53.4413V59.8124C17.2445 59.8124 17.2445 59.8679 17.3001 59.8679H21.047C21.047 59.8679 21.1249 59.8791 21.1472 59.9124C21.1805 59.9347 21.1916 59.968 21.1916 60.0124V61.4023ZM30.5535 55.9875C30.5535 55.9875 30.5423 56.0542 30.52 56.0876C30.4867 56.1098 30.4533 56.121 30.42 56.121H28.7411C28.7411 56.121 28.6744 56.1098 28.6411 56.0876C28.6188 56.0542 28.6076 56.0208 28.6076 55.9875C28.6076 55.6762 28.4965 55.4205 28.2853 55.1981C28.0629 54.9868 27.7738 54.8757 27.4069 54.8757C27.04 54.8757 26.7508 54.998 26.5396 55.2314C26.3173 55.4649 26.206 55.7762 26.206 56.1543V58.6782C26.206 59.0563 26.3283 59.3676 26.5729 59.6011C26.8176 59.8345 27.1178 59.9457 27.4847 59.9457C27.8294 59.9457 28.1073 59.8568 28.3186 59.6789C28.5299 59.4899 28.6411 59.2341 28.6411 58.9005V58.5782C28.6411 58.5782 28.6188 58.5115 28.5855 58.5115H27.4069C27.4069 58.5115 27.329 58.5003 27.3068 58.4781C27.2734 58.4447 27.2623 58.4113 27.2623 58.378V57.0771C27.2623 57.0771 27.2734 57.0104 27.3068 56.9771C27.329 56.9548 27.3624 56.9325 27.4069 56.9325H30.42C30.42 56.9325 30.4867 56.9548 30.52 56.9771C30.5423 57.0104 30.5535 57.0438 30.5535 57.0771V58.6782C30.5535 59.2676 30.4312 59.7901 30.1643 60.2348C29.8974 60.6796 29.5305 61.0243 29.0524 61.2689C28.5855 61.5135 28.0295 61.6358 27.4069 61.6358C26.7842 61.6358 26.2283 61.5135 25.7502 61.2577C25.2722 61.002 24.9052 60.6573 24.6495 60.2014C24.3826 59.7456 24.2492 59.2119 24.2492 58.6226V56.2099C24.2492 55.6095 24.3826 55.0869 24.6495 54.6422C24.9052 54.1863 25.2722 53.8416 25.7502 53.5859C26.2283 53.3301 26.7731 53.2078 27.4069 53.2078C28.0407 53.2078 28.5743 53.3301 29.0524 53.5636C29.5305 53.8082 29.8974 54.1307 30.1643 54.5532C30.4312 54.9645 30.5535 55.4205 30.5535 55.9319V55.9875ZM37.8027 61.4023C37.8027 61.4023 37.7916 61.469 37.7693 61.5023C37.736 61.5246 37.7026 61.5357 37.6693 61.5357H35.9904C35.9904 61.5357 35.9236 61.5246 35.8903 61.5023C35.8681 61.469 35.8569 61.4356 35.8569 61.4023V58.2669C35.8569 58.2669 35.8348 58.2113 35.7903 58.2113H33.5888C33.5888 58.2113 33.5332 58.2334 33.5332 58.2669V61.4023C33.5332 61.4023 33.522 61.469 33.4887 61.5023C33.4665 61.5246 33.4331 61.5357 33.3887 61.5357H31.7209C31.7209 61.5357 31.6542 61.5246 31.6208 61.5023C31.5986 61.469 31.5763 61.4356 31.5763 61.4023V53.4413C31.5763 53.4413 31.5986 53.3746 31.6208 53.3413C31.6542 53.319 31.6875 53.3079 31.7209 53.3079H33.3887C33.3887 53.3079 33.4665 53.3079 33.4887 53.3413C33.522 53.3746 33.5332 53.408 33.5332 53.4413V56.4767C33.5332 56.4767 33.5554 56.5435 33.5888 56.5435H35.7903C35.7903 56.5435 35.8569 56.5212 35.8569 56.4767V53.4413C35.8569 53.4413 35.8681 53.3746 35.8903 53.3413C35.9236 53.319 35.9571 53.3079 35.9904 53.3079H37.6693C37.6693 53.3079 37.736 53.3079 37.7693 53.3413C37.7916 53.3746 37.8027 53.408 37.8027 53.4413V61.4023ZM46.0527 61.5357H44.2515C44.1625 61.5357 44.1069 61.5023 44.0847 61.4245L43.7845 60.3683C43.7845 60.3683 43.7511 60.3237 43.7289 60.3237H41.0382C41.0382 60.3237 40.9937 60.346 40.9826 60.3683L40.6713 61.4245C40.649 61.5023 40.5934 61.5357 40.5157 61.5357H38.7144C38.6589 61.5357 38.6254 61.5246 38.6033 61.5023C38.581 61.469 38.581 61.4245 38.5921 61.3689L41.116 53.4191C41.1383 53.3413 41.1828 53.3079 41.2606 53.3079H43.4842C43.5621 53.3079 43.6177 53.3413 43.64 53.4191L46.175 61.3689C46.175 61.3689 46.1861 61.4134 46.1861 61.4356C46.1861 61.5023 46.1416 61.5357 46.0527 61.5357ZM54.5583 61.5357H52.8795C52.7905 61.5357 52.7461 61.4912 52.7238 61.4134L51.7009 56.8659C51.7009 56.8659 51.6786 56.8214 51.6675 56.8214C51.6453 56.8214 51.6342 56.8325 51.6342 56.8659L50.7114 61.4134C50.7002 61.4912 50.6446 61.5357 50.5556 61.5357H48.988C48.899 61.5357 48.8434 61.5023 48.8212 61.4245L46.6308 53.4525V53.408C46.6197 53.3413 46.6642 53.3079 46.7531 53.3079H48.5321C48.6099 53.3079 48.6655 53.3413 48.6878 53.4191L49.7107 57.6998C49.7107 57.6998 49.7329 57.7554 49.7441 57.7554C49.7662 57.7554 49.7774 57.7331 49.7885 57.6998L50.7002 53.4302C50.7114 53.3413 50.7669 53.3079 50.8559 53.3079H52.4903C52.5682 53.3079 52.6238 53.3413 52.6459 53.4191L53.6689 57.6998C53.6689 57.6998 53.68 57.7554 53.7022 57.7554C53.7133 57.7554 53.7245 57.7331 53.7356 57.6998L54.6918 53.4302C54.7029 53.3413 54.7585 53.3079 54.8475 53.3079H56.5819C56.6932 53.3079 56.7376 53.3524 56.7153 53.4525L54.7252 61.4245C54.7029 61.5023 54.6473 61.5357 54.5583 61.5357ZM63.4977 61.5357H61.7076C61.6187 61.5357 61.563 61.5023 61.5408 61.4245L61.2295 60.3683C61.2295 60.3683 61.1961 60.3237 61.1739 60.3237H58.4943C58.4943 60.3237 58.4498 60.346 58.4276 60.3683L58.1274 61.4245C58.1052 61.5023 58.0496 61.5357 57.9606 61.5357H56.1594C56.1594 61.5357 56.0816 61.5246 56.0594 61.5023C56.026 61.469 56.026 61.4245 56.0371 61.3689L58.561 53.4191C58.5833 53.3413 58.6389 53.3079 58.7167 53.3079H60.9404C61.0182 53.3079 61.0628 53.3413 61.0849 53.4191L63.62 61.3689C63.62 61.3689 63.6311 61.4134 63.6311 61.4356C63.6311 61.5023 63.5866 61.5357 63.4977 61.5357ZM70.4023 61.4023C70.4023 61.4023 70.38 61.469 70.3578 61.5023C70.3245 61.5246 70.2911 61.5357 70.2577 61.5357H64.6318C64.6318 61.5357 64.554 61.5246 64.5317 61.5023C64.5095 61.469 64.4872 61.4356 64.4872 61.4023V53.4413C64.4872 53.4413 64.5095 53.3746 64.5317 53.3413C64.554 53.319 64.5873 53.3079 64.6318 53.3079H66.2995C66.2995 53.3079 66.3774 53.3079 66.3996 53.3413C66.4329 53.3746 66.4441 53.408 66.4441 53.4413V59.8124C66.4441 59.8124 66.4664 59.8679 66.4997 59.8679H70.2577C70.2577 59.8679 70.3245 59.8791 70.3578 59.9124C70.38 59.9347 70.4023 59.968 70.4023 60.0124V61.4023ZM73.1819 61.4023C73.1819 61.4023 73.1708 61.469 73.1486 61.5023C73.1153 61.5246 73.0818 61.5357 73.0485 61.5357H71.3696C71.3696 61.5357 71.3029 61.5246 71.2696 61.5023C71.2473 61.469 71.2362 61.4356 71.2362 61.4023V53.4413C71.2362 53.4413 71.2362 53.3746 71.2696 53.3413C71.3029 53.319 71.3362 53.3079 71.3696 53.3079H73.0485C73.0485 53.3079 73.1153 53.3079 73.1486 53.3413C73.1708 53.3746 73.1819 53.408 73.1819 53.4413V61.4023ZM59.8175 55.6873C59.8175 55.6873 59.7952 55.6985 59.784 55.7206L58.9058 58.7561C58.9058 58.7561 58.9057 58.8228 58.9502 58.8228H60.7069C60.7069 58.8228 60.7625 58.8005 60.7514 58.7561L59.8508 55.7206C59.8508 55.7206 59.8508 55.6762 59.8175 55.6873ZM42.4058 55.7206C42.4058 55.7206 42.3835 55.6762 42.3724 55.6873C42.3502 55.6873 42.3391 55.6985 42.3391 55.7206L41.4496 58.7561C41.4496 58.7561 41.4607 58.8228 41.5052 58.8228H43.2508C43.2508 58.8228 43.3175 58.8005 43.2952 58.7561L42.4058 55.7206ZM43.2952 58.7561L42.4058 55.7206C42.4058 55.7206 42.3835 55.6762 42.3724 55.6873C42.3502 55.6873 42.3391 55.6985 42.3391 55.7206L41.4496 58.7561C41.4496 58.7561 41.4607 58.8228 41.5052 58.8228H43.2508C43.2508 58.8228 43.3175 58.8005 43.2952 58.7561ZM59.8508 55.7206C59.8508 55.7206 59.8508 55.6762 59.8175 55.6873C59.8063 55.6873 59.7952 55.6985 59.784 55.7206L58.9058 58.7561C58.9058 58.7561 58.9057 58.8228 58.9502 58.8228H60.7069C60.7069 58.8228 60.7625 58.8005 60.7514 58.7561L59.8508 55.7206ZM59.8508 55.7206C59.8508 55.7206 59.8508 55.6762 59.8175 55.6873C59.8063 55.6873 59.7952 55.6985 59.784 55.7206L58.9058 58.7561C58.9058 58.7561 58.9057 58.8228 58.9502 58.8228H60.7069C60.7069 58.8228 60.7625 58.8005 60.7514 58.7561L59.8508 55.7206ZM43.2952 58.7561L42.4058 55.7206C42.4058 55.7206 42.3835 55.6762 42.3724 55.6873C42.3502 55.6873 42.3391 55.6985 42.3391 55.7206L41.4496 58.7561C41.4496 58.7561 41.4607 58.8228 41.5052 58.8228H43.2508C43.2508 58.8228 43.3175 58.8005 43.2952 58.7561ZM43.2952 58.7561L42.4058 55.7206C42.4058 55.7206 42.3835 55.6762 42.3724 55.6873C42.3502 55.6873 42.3391 55.6985 42.3391 55.7206L41.4496 58.7561C41.4496 58.7561 41.4607 58.8228 41.5052 58.8228H43.2508C43.2508 58.8228 43.3175 58.8005 43.2952 58.7561ZM43.2952 58.7561L42.4058 55.7206C42.4058 55.7206 42.3835 55.6762 42.3724 55.6873C42.3502 55.6873 42.3391 55.6985 42.3391 55.7206L41.4496 58.7561C41.4496 58.7561 41.4607 58.8228 41.5052 58.8228H43.2508C43.2508 58.8228 43.3175 58.8005 43.2952 58.7561Z" fill="#F05D22"/>
<path id="Vector_11" d="M39.8711 6.15234C22.2816 6.15234 7.96094 20.462 7.96094 38.0628C7.96094 42.11 8.717 45.9793 10.0957 49.5484C10.1513 49.6929 10.2069 49.8264 10.2625 49.971H11.6523C11.341 49.2482 11.063 48.5032 10.8184 47.7472C9.7955 44.7007 9.25069 41.4429 9.25069 38.0628C9.25069 21.1737 22.9821 7.44211 39.8711 7.44211C56.7603 7.44211 70.4916 21.1737 70.4916 38.0628C70.4916 41.365 69.9691 44.545 68.9907 47.5359C68.7238 48.3587 68.4125 49.1704 68.0789 49.971H69.4687C69.6022 49.6485 69.7245 49.326 69.8468 49.0036C71.092 45.5902 71.7702 41.9099 71.7702 38.074C71.7702 20.4843 57.4607 6.16346 39.8711 6.16346" fill="#F05D22"/>
<g id="Group">
<path id="Vector_12" d="M1.03906 71.4329V65.629C1.03906 65.5289 1.09466 65.4844 1.1836 65.4844H2.11756C2.19539 65.4844 2.25098 65.5066 2.29546 65.5845L3.56298 67.6303C3.56298 67.6303 3.61857 67.6637 3.62968 67.6303L4.90832 65.5845C4.95279 65.5178 5.00839 65.4844 5.08621 65.4844H6.02017C6.12024 65.4844 6.16471 65.54 6.16471 65.629V71.4329C6.16471 71.533 6.10912 71.5774 6.02017 71.5774H5.08621C4.98614 71.5774 4.94167 71.5218 4.94167 71.4329V67.6525C4.94167 67.6525 4.90832 67.5858 4.87496 67.6303L3.99659 69.0646C3.95212 69.1313 3.89652 69.1646 3.8187 69.1646H3.37395C3.29613 69.1646 3.24053 69.1425 3.19606 69.0646L2.32881 67.6303C2.32881 67.6303 2.27322 67.597 2.27322 67.6525V71.4329C2.27322 71.533 2.21762 71.5774 2.12868 71.5774H1.1836C1.08354 71.5774 1.03906 71.5218 1.03906 71.4329Z" fill="#249D64"/>
<path id="Vector_13" d="M10.9794 71.4584L10.7348 70.6467C10.7348 70.6467 10.7125 70.6023 10.6791 70.6023H8.54436C8.54436 70.6023 8.49989 70.6023 8.48877 70.6467L8.24416 71.4584C8.22192 71.5363 8.16633 71.5807 8.07738 71.5807H7.06559C6.96553 71.5807 6.90994 71.514 6.94329 71.414L8.80008 65.5989C8.82233 65.5211 8.87792 65.4766 8.96686 65.4766H10.2455C10.3344 65.4766 10.39 65.5211 10.4123 65.5989L12.2691 71.414C12.3024 71.514 12.2468 71.5807 12.1468 71.5807H11.135C11.046 71.5807 10.9904 71.5363 10.9682 71.4584H10.9794ZM8.84456 69.6572H10.39C10.39 69.6572 10.4456 69.635 10.4345 69.6016L9.6451 66.9443C9.6451 66.9443 9.5895 66.8998 9.57839 66.9443L8.80008 69.6016C8.80008 69.6016 8.80008 69.6572 8.84456 69.6572Z" fill="#249D64"/>
<path id="Vector_14" d="M13.0703 71.4329V65.629C13.0703 65.5289 13.1259 65.4844 13.2148 65.4844H14.1155C14.1933 65.4844 14.2489 65.5066 14.2933 65.5845L16.4725 69.2092C16.4725 69.2092 16.5392 69.2425 16.5392 69.1869V65.629C16.5392 65.5289 16.5948 65.4844 16.6838 65.4844H17.5955C17.6956 65.4844 17.7401 65.54 17.7401 65.629V71.4329C17.7401 71.533 17.6845 71.5774 17.5955 71.5774H16.7061C16.6282 71.5774 16.5727 71.5441 16.5282 71.4774L14.3378 67.8193C14.3378 67.8193 14.2711 67.786 14.2711 67.8416V71.444C14.2711 71.5441 14.2266 71.5885 14.1376 71.5885H13.2148C13.1148 71.5885 13.0703 71.533 13.0703 71.444V71.4329Z" fill="#249D64"/>
<path id="Vector_15" d="M23.2028 67.3668C23.2028 68.4787 22.4134 69.2125 21.2237 69.2125H19.9896C19.9896 69.2125 19.934 69.2347 19.934 69.2681V71.4361C19.934 71.5363 19.8784 71.5807 19.7894 71.5807H18.8554C18.7554 71.5807 18.7109 71.5251 18.7109 71.4361V65.6211C18.7109 65.5211 18.7665 65.4766 18.8554 65.4766H21.2682C22.4245 65.4766 23.1917 66.2327 23.1917 67.3668H23.2028ZM21.9798 67.389C21.9798 66.8776 21.6239 66.5329 21.0903 66.5329H19.9896C19.9896 66.5329 19.934 66.5551 19.934 66.5884V68.1784C19.934 68.1784 19.9562 68.2341 19.9896 68.2341H21.0903C21.6239 68.2341 21.9798 67.8893 21.9798 67.4001V67.389Z" fill="#249D64"/>
<path id="Vector_16" d="M23.8438 69.4646V67.5967C23.8438 66.2847 24.7555 65.4062 26.1342 65.4062C27.5128 65.4062 28.4357 66.2847 28.4357 67.5967V69.4646C28.4357 70.7877 27.524 71.6772 26.1342 71.6772C24.7443 71.6772 23.8438 70.7877 23.8438 69.4646ZM27.2126 69.5091V67.5855C27.2126 66.9073 26.7902 66.4625 26.1452 66.4625C25.5004 66.4625 25.0779 66.9073 25.0779 67.5855V69.5091C25.0779 70.1762 25.5004 70.621 26.1452 70.621C26.7902 70.621 27.2126 70.1762 27.2126 69.5091Z" fill="#249D64"/>
<path id="Vector_17" d="M30.2977 71.4551L28.7633 65.6512C28.7412 65.5511 28.7856 65.4844 28.8968 65.4844H29.8863C29.9753 65.4844 30.0309 65.5289 30.0421 65.6178L30.8648 69.098C30.8648 69.098 30.9315 69.1425 30.9315 69.098L31.7209 65.6178C31.7432 65.5289 31.7876 65.4844 31.8766 65.4844H32.8662C32.9551 65.4844 33.0106 65.5289 33.0329 65.6178L33.889 69.098C33.889 69.098 33.9446 69.1425 33.9446 69.098L34.734 65.6178C34.7563 65.5289 34.8007 65.4844 34.8897 65.4844H35.8347C35.9349 65.4844 35.9793 65.5511 35.957 65.6512L34.5561 71.4551C34.534 71.5441 34.4783 71.5885 34.3894 71.5885H33.4331C33.3442 71.5885 33.2887 71.5441 33.2664 71.4551L32.3991 67.7526C32.3991 67.7526 32.3435 67.697 32.3324 67.7526L31.5208 71.4551C31.4986 71.5441 31.4541 71.5885 31.3651 71.5885H30.4757C30.3867 71.5885 30.3311 71.533 30.3088 71.4551H30.2977Z" fill="#249D64"/>
<path id="Vector_18" d="M40.7133 66.5329H37.9003C37.9003 66.5329 37.8447 66.5551 37.8447 66.5884V67.9227C37.8447 67.9227 37.867 67.9783 37.9003 67.9783H39.7237C39.8238 67.9783 39.8683 68.0339 39.8683 68.1228V68.8789C39.8683 68.9789 39.8127 69.0235 39.7237 69.0235H37.9003C37.9003 69.0235 37.8447 69.0457 37.8447 69.0791V70.4689C37.8447 70.4689 37.867 70.5244 37.9003 70.5244H40.7133C40.8134 70.5244 40.8578 70.58 40.8578 70.669V71.4251C40.8578 71.5251 40.8022 71.5696 40.7133 71.5696H36.7773C36.6773 71.5696 36.6328 71.514 36.6328 71.4251V65.6211C36.6328 65.5211 36.6884 65.4766 36.7773 65.4766H40.7133C40.8134 65.4766 40.8578 65.5321 40.8578 65.6211V66.3772C40.8578 66.4773 40.8022 66.5217 40.7133 66.5217V66.5329Z" fill="#249D64"/>
<path id="Vector_19" d="M44.9215 71.4696L43.8541 69.1012C43.8541 69.1012 43.8208 69.0568 43.7985 69.0568H43.0091C43.0091 69.0568 42.9535 69.0791 42.9535 69.1124V71.4361C42.9535 71.5363 42.8979 71.5807 42.8089 71.5807H41.875C41.7749 71.5807 41.7305 71.5251 41.7305 71.4361V65.6211C41.7305 65.5211 41.7861 65.4766 41.875 65.4766H44.3211C45.4441 65.4766 46.189 66.2215 46.189 67.3112C46.189 68.1006 45.7665 68.701 45.0772 68.9345C45.0438 68.9345 45.0326 68.9789 45.0549 69.0012L46.2112 71.4028C46.2668 71.5029 46.2112 71.5807 46.1112 71.5807H45.1216C45.0438 71.5807 44.9771 71.5363 44.9438 71.4696H44.9215ZM42.9424 66.5884V68.0561C42.9424 68.0561 42.9646 68.1118 42.9979 68.1118H44.1321C44.6213 68.1118 44.9659 67.8004 44.9659 67.3334C44.9659 66.8664 44.6213 66.544 44.1321 66.544H42.9979C42.9979 66.544 42.9424 66.5663 42.9424 66.5996V66.5884Z" fill="#249D64"/>
<path id="Vector_20" d="M48.5938 69.832V69.6876C48.5938 69.5874 48.6493 69.543 48.7383 69.543H49.65C49.7501 69.543 49.7945 69.5874 49.7945 69.6542V69.7765C49.7945 70.2212 50.2393 70.6104 50.9509 70.6104C51.618 70.6104 51.8626 70.2768 51.8626 69.9322C51.8626 69.4874 51.4179 69.3318 50.5839 69.0205C49.6722 68.7091 48.6271 68.2977 48.6271 67.1414C48.6271 66.0739 49.5055 65.418 50.7508 65.418C52.0961 65.418 53.0412 66.1629 53.0412 67.2971V67.386C53.0412 67.4861 52.9855 67.5305 52.8966 67.5305H51.9849C51.8848 67.5305 51.8403 67.4971 51.8403 67.4416V67.3527C51.8403 66.8967 51.4512 66.4743 50.7173 66.4743C50.1614 66.4743 49.8501 66.7189 49.8501 67.1302C49.8501 67.5861 50.2393 67.7417 51.2066 68.0753C51.9961 68.3644 53.0968 68.698 53.0968 69.8876C53.0968 70.9551 52.2295 71.6556 50.8619 71.6556C49.4943 71.6556 48.5938 70.9439 48.5938 69.832Z" fill="#249D64"/>
<path id="Vector_21" d="M53.9062 69.5571V65.6211C53.9062 65.5211 53.9618 65.4766 54.0508 65.4766H54.9848C55.0848 65.4766 55.1293 65.5321 55.1293 65.6211V69.5683C55.1293 70.1798 55.5407 70.6023 56.1634 70.6023C56.7859 70.6023 57.1974 70.1798 57.1974 69.5683V65.6211C57.1974 65.5211 57.253 65.4766 57.3419 65.4766H58.2758C58.376 65.4766 58.4204 65.5321 58.4204 65.6211V69.5571C58.4204 70.8136 57.5087 71.6474 56.1634 71.6474C54.818 71.6474 53.9062 70.8136 53.9062 69.5571Z" fill="#249D64"/>
<path id="Vector_22" d="M63.8941 67.3668C63.8941 68.4787 63.1047 69.2125 61.9151 69.2125H60.681C60.681 69.2125 60.6254 69.2347 60.6254 69.2681V71.4361C60.6254 71.5363 60.5698 71.5807 60.4808 71.5807H59.5468C59.4468 71.5807 59.4023 71.5251 59.4023 71.4361V65.6211C59.4023 65.5211 59.4579 65.4766 59.5468 65.4766H61.9596C63.1159 65.4766 63.8831 66.2327 63.8831 67.3668H63.8941ZM62.6711 67.389C62.6711 66.8776 62.3153 66.5329 61.7817 66.5329H60.681C60.681 66.5329 60.6254 66.5551 60.6254 66.5884V68.1784C60.6254 68.1784 60.6476 68.2341 60.681 68.2341H61.7817C62.3153 68.2341 62.6711 67.8893 62.6711 67.4001V67.389Z" fill="#249D64"/>
<path id="Vector_23" d="M69.0817 67.3668C69.0817 68.4787 68.2923 69.2125 67.1026 69.2125H65.8685C65.8685 69.2125 65.8129 69.2347 65.8129 69.2681V71.4361C65.8129 71.5363 65.7573 71.5807 65.6683 71.5807H64.7344C64.6343 71.5807 64.5898 71.5251 64.5898 71.4361V65.6211C64.5898 65.5211 64.6454 65.4766 64.7344 65.4766H67.1471C68.3035 65.4766 69.0706 66.2327 69.0706 67.3668H69.0817ZM67.8587 67.389C67.8587 66.8776 67.5029 66.5329 66.9692 66.5329H65.8685C65.8685 66.5329 65.8129 66.5551 65.8129 66.5884V68.1784C65.8129 68.1784 65.8351 68.2341 65.8685 68.2341H66.9692C67.5029 68.2341 67.8587 67.8893 67.8587 67.4001V67.389Z" fill="#249D64"/>
<path id="Vector_24" d="M69.8359 71.4329V65.629C69.8359 65.5289 69.8916 65.4844 69.9805 65.4844H70.9145C71.0145 65.4844 71.0591 65.54 71.0591 65.629V70.4767C71.0591 70.4767 71.0812 70.5322 71.1146 70.5322H73.9165C74.0166 70.5322 74.0611 70.5878 74.0611 70.6768V71.4329C74.0611 71.533 74.0055 71.5774 73.9165 71.5774H69.9805C69.8805 71.5774 69.8359 71.5218 69.8359 71.4329Z" fill="#249D64"/>
<path id="Vector_25" d="M75.9182 71.4251V69.2681C75.9182 69.2681 75.9182 69.2125 75.8959 69.2014L74.1392 65.6545C74.0836 65.5544 74.1392 65.4766 74.2392 65.4766H75.2511C75.3288 65.4766 75.3956 65.5211 75.429 65.5878L76.4964 67.856C76.4964 67.856 76.552 67.8893 76.563 67.856L77.6304 65.5878C77.6638 65.5211 77.7304 65.4766 77.8083 65.4766H78.8313C78.9424 65.4766 78.998 65.5544 78.9424 65.6545L77.1635 69.2014C77.1635 69.2014 77.1412 69.2569 77.1412 69.2681V71.4251C77.1412 71.5251 77.0856 71.5696 76.9966 71.5696H76.0738C75.9738 71.5696 75.9293 71.514 75.9293 71.4251H75.9182Z" fill="#249D64"/>
</g>
</g>
</g>
<defs>
<clipPath id="clip0_4366_36769">
<rect width="78.7193" height="72" fill="white" transform="translate(0.640625 0.5)"/>
</clipPath>
</defs>
</svg>
