<?xml version="1.0" encoding="UTF-8"?>
<svg id="Layer_1" xmlns="http://www.w3.org/2000/svg" version="1.1" viewBox="0 0 22.61 22.92">
  <!-- Generator: Adobe Illustrator 29.3.1, SVG Export Plug-In . SVG Version: 2.1.0 Build 151)  -->
  <defs>
    <style>
      .st0 {
        fill: #134f7f;
      }

      .st1 {
        fill: #0e4c7e;
      }

      .st2 {
        fill: #fff;
      }

      .st3 {
        fill: #fcfdfd;
      }

      .st4 {
        fill: #e63441;
      }

      .st5 {
        fill: #f15e22;
      }
    </style>
  </defs>
  <path class="st0" d="M17.09,3.95v-.87h2.18c.12,0,.02.32.02.39-.01.38.03.76.04,1.13.01.31-.03.63.02.94l3.14,2.18v2.31l-1.87-1.21c.13.47.27.93.36,1.41.72,3.89-.9,7.96-4.23,10.11-.24-1.19-.43-2.4-.73-3.58-.06-.25-.28-.74-.3-.95s.1-.38-.02-.64c-.03-.07-.12-.12-.14-.19-.02-.09.04-.25.01-.39-.05-.22-.58-.43-.45-.57.09-.09.68.24.79.31.41.31.5.74.61,1.22.2.93.29,1.96.35,2.91.08.11,1.12-1.17,1.2-1.28,2.18-2.97,2.24-7.06.09-10.06l-6.93-4.76-7.2,4.91c-2.42,3.48-1.81,8.33,1.31,11.17.08.07.77.67.83.6.03-.15.03-.31.05-.47.16-.9.56-2.3.44-3.17-.1-.74-1.08-.69-1.42-1.33-.22-.41-.19-.82-.02-1.25.11-.27.66-.99.66-1.17,0-.2-.29-.74-.42-.91-.1-.14-.31-.23-.29-.44.12-.04.3.05.39.04.09,0,.15-.14.26-.16.12-.02.23.05.32.04.02,0,.15-.27.36-.17-.26.65-.29,1.35-.02,2,.46-.35.35.05.45.16.03.04.18,0,.2.2.02.36-.41.33-.36.65.05.38.27.35.51.53.58.45.68,1.04.64,1.75.1.02.07-.02.1-.05.08-.1.11-.19.22-.28.28-.23.67-.28,1.02-.29-.01.29-.03.46.17.69.04.04.16.1.16.12,0,0-.07.06-.08.13-.03.19.02.41.15.56.05.06.16.1.18.15.03.09,0,.24.02.36.03.18.21.31.23.39.09.31-.09,1.43-.12,1.82-.05.71-.1,1.41-.17,2.12-.02.25,0,.59-.04.83,0,.04-.02.09-.07.1-.06.01-.96-.19-1.1-.22-1.15-.3-2.34-.87-3.3-1.57C1.79,17.64.29,13.1,1.66,8.94l-1.66,1.08v-2.37C3.77,5.14,7.46,2.53,11.22,0l5.88,3.95ZM5.82,12.93s0-.15.02-.21c.08-.25.27-.54.19-.79l-.48.63c-.24.43-.39.92-.14,1.39.33.64,1.41.57,1.53,1.46.23,1.69-1.29,3.51.09,5.1.34.4.95.63,1.28.09.52-.84-.39-3.38-.53-4.41-.12-.83.11-2.15-.8-2.55.08.36.63,1.57.44,1.87-.14.22-.36-.26-.4-.35-.23-.5-.33-1.12-.49-1.65l-.08.17c-.09-.28-.11-.5.05-.76.07-.11.57-.49.49-.57-.32.01-.66.38-.83.62l-.04-.08c.09-.15.18-.26.31-.38.07-.06.46-.27.35-.37-.15-.14-.83.65-.91.79h-.04Z"/>
  <path class="st5" d="M16.79,21.24v.13c-1.63,1.39-4.09,1.9-6.15,1.31-.12-.03-.61-.18-.67-.25-.07-.08-.05-.2-.04-.29.1-1.52.32-3.05.38-4.57,0-.13.02-.38,0-.5-.02-.11-.18-.22-.22-.36-.04-.13,0-.39-.04-.44-.04-.06-.29-.18-.35-.38-.07-.23.07-.43.06-.48-.02-.07-.4-.23-.41-.51,0-.09.05-.18.04-.27-.17.01-.74-.02-.66-.26.1-.27.78-.09,1.01-.12.14-.02.42-.21.52-.14.06.04.37.63.42.74.15.34.27.7.33,1.06,1.17-.15,2.32-.44,3.49-.62-.1-.64-.23-1.14-.81-1.49-.03-.02-.13-.01-.06-.09.03-.03.41-.08.5-.1.2-.06.25-.18.52-.15.33.04.09.22.1.27,0,.04.17.09.22.2.05.11,0,.25.05.32.04.07.35.19.42.33.08.17-.08.31-.06.39.01.05.12.08.16.13.19.22-.02.41,0,.65.03.32.25.83.33,1.17.35,1.42.59,2.87.9,4.3Z"/>
  <path class="st0" d="M8.57,12.39c-1.31-3.26-.75-8.1,3.76-7.74,1.22.1,2.52,1.01,2.79,2.24.18.83-.18,1.43.07,2.3.29,1,.9,1.5,1.8,1.9.03.01.09,0,.06.07-.03.07-.72.63-.82.68-.38.19-.64-.44-.97-.53.12.32.42.49.58.76-.03.16-1.08.51-1.28.55-.38.09-.77.11-1.16.18-.05.07-.02.82.03.93.05.09.34.24.43.34.21.22.4.73.46,1.02,0,.05.03.07-.02.11l-3.2.52c-.09-.53-.3-1.08-.62-1.52.37-.17.53-.26.67-.66.18-.53.05-.49-.44-.56-.13-.02-.54,0-.63-.06-.06-.04-.3-.57-.47-.62,0-.03,0-.07-.02-.12-.04-.07-.22-.21-.19-.06.02.09.18.35.23.48.04.11.08.22.1.33-.04.05-.64.09-.71.25-.01,0-.03,0-.04,0-.08-.14-.17-.28-.25-.42-.01-.03-.03-.06-.04-.08,0-.11-.05-.22-.12-.29ZM14.81,7.81c.04-3.39-4.36-3.56-5.57-.76-.05.11-.17.39-.17.49,0,.19.13-.04.14-.06.58-.61,1.35-1.17,2.18-1.36,1.26-.29,2.74.03,3.25,1.34.02.04.07.47.16.36ZM9.52,9.27c.2,1.59.55,2.65,2.07,3.36.31.14.61.29.94.2.62-.16,1.36-.82,1.64-1.4.32-.67.43-2.05.35-2.78-.06-.49-1.01-.69-1.41-.76-.84-.15-1.6-.16-2.43-.44-.12-.04-.3-.19-.42-.15-.15.05-.43.98-.51,1.16-.16.36-.34.68-.64.94.1.11.39-.16.42-.15ZM13.23,12.72c-.28.05-.56.29-.85.29-.18,0-.94-.33-.98-.29.02.22-.01.42-.05.63-.03.16-.24.65-.24.72,0,.21.69.52.88.57.5.14,1.73.24,1.47-.59-.07-.21-.23-.48-.23-.73v-.6Z"/>
  <path class="st5" d="M6.49,7.48c-.17.28-.22.63-.21.96.12.02.07-.03.09-.09.05-.12.08-.24.18-.32.09-.02.06.04.06.1-.01.13-.1.26-.08.4.13-.03.21-.13.34-.18.04-.01.1-.07.07.03s-.23.32-.28.47c-.07.18-.1.46-.13.66-.01.11.02.37-.02.43-.05.07-.2.02-.29.05-.06.02-.09.1-.14.11-.06.01-.16-.05-.28-.02-.09.02-.16.12-.23.14-.1.02-.32-.05-.46,0-.14-.28-.32-.66-.52-.9-.13-.15-.59-.41-.06-.29l-.21-.25h.29s-.49-.23-.42-.29l.42.04-.19-.25.31.08-.33-.37c.24-.03.44.03.67.08l-.17-.31.17-.02s-.19-.22-.02-.21c.27.02.51.33.69.5,0-.17,0-.35.15-.46l.02.31c.08.08.12-.09.21-.17.05-.05.33-.27.38-.23ZM5.24,7.94c.01-.08-.05-.14-.12-.12.02.04.12.14.12.12Z"/>
  <path class="st3" d="M5.82,12.93s-.13-.02-.08.17c.13.03.08-.1.12-.17.09-.14.77-.93.91-.79.1.1-.28.31-.35.37-.13.12-.22.23-.31.38-.07.11-.17.23-.17.37l.21-.29c.18-.25.52-.61.83-.62.08.08-.42.46-.49.57-.16.26-.13.48-.05.76l.08-.17c.16.53.26,1.15.49,1.65.04.09.26.56.4.35.2-.3-.35-1.51-.44-1.87.9.4.68,1.73.8,2.55.14,1.02,1.05,3.57.53,4.41-.33.54-.94.31-1.28-.09-1.38-1.59.14-3.41-.09-5.1-.12-.9-1.2-.82-1.53-1.46-.24-.47-.09-.95.14-1.39l.48-.63c.08.25-.1.54-.19.79-.02.06-.01.2-.02.21Z"/>
  <path class="st3" d="M9.52,9.27s-.32.25-.42.15c.31-.25.49-.58.64-.94.08-.18.36-1.11.51-1.16.12-.04.3.11.42.15.83.28,1.59.29,2.43.44.4.07,1.35.27,1.41.76.09.73-.02,2.11-.35,2.78-.28.57-1.02,1.23-1.64,1.4-.33.09-.64-.06-.94-.2-1.51-.71-1.87-1.77-2.07-3.36ZM14.02,8.44c-.17-.45-.67-.3-1-.12,0,.2.35.01.44,0,.23-.03.35.06.56.12ZM11.23,8.56c-.17-.37-.83-.37-1,0,.34-.1.66-.13,1,0ZM13.72,8.77c-.39-.14-.84.04-.91.46.11-.04.28-.26.25,0,.33-.28.51.29.12.33.08.19.37.16.51.04.18-.15.14-.48.16-.5.01-.01.2-.02.33-.08s.2-.09.17-.25c-.14.1-.29.09-.46.08-.03,0-.06,0-.08,0-.01-.04-.04-.07-.08-.08ZM11.64,9.39c.09-.09-.48-.4-.6-.42-.43-.04-.74.35-1.19.25.14.24.43.2.67.17-.17.44.6.74.75.44.04-.09-.12-.05-.19-.1-.19-.13-.04-.4.16-.37.06,0,.1.07.13.08.02,0,.04-.16.27-.04ZM12.16,10.92c.16.13.34.04.4-.13-.17.07-.28.08-.46.02,0,0,.04.1.05.11ZM13.31,11.27c.11-.11-.39-.16-.44-.17-.33,0-.95.03-1.25.16l-.18.13c.15.07.17.3.32.45.39.4,1.17.35,1.35-.22.03-.09.03-.28.06-.32.03-.05.14-.03.15-.04Z"/>
  <path class="st5" d="M14.81,7.81c-.09.12-.15-.32-.16-.36-.51-1.3-2-1.63-3.25-1.34-.83.19-1.6.75-2.18,1.36-.02.02-.15.26-.14.06,0-.1.13-.38.17-.49,1.21-2.8,5.6-2.62,5.57.76Z"/>
  <path class="st3" d="M13.23,12.72v.6c0,.25.16.51.23.73.26.84-.97.74-1.47.59-.19-.05-.88-.37-.88-.57,0-.07.21-.56.24-.72.04-.22.07-.41.05-.63.04-.04.8.29.98.29.29,0,.57-.24.85-.29Z"/>
  <path class="st3" d="M5.24,7.94s-.11-.09-.12-.12c.08-.01.14.05.12.12Z"/>
  <path class="st0" d="M13.31,11.27s-.11,0-.15.04c-.03.04-.03.23-.06.32-.18.57-.96.62-1.35.22-.15-.16-.17-.39-.32-.45l.18-.13c.3-.13.92-.17,1.25-.16.05,0,.55.05.44.17ZM13.02,11.27c-.25.04-.52.16-.77.16-.14,0-.36-.05-.51-.07-.06,0-.11-.04-.09.05.42.42,1.05.34,1.37-.14Z"/>
  <path class="st0" d="M14.02,8.44c-.2-.07-.33-.15-.56-.12-.09.01-.45.2-.44,0,.33-.18.83-.33,1,.12Z"/>
  <path class="st0" d="M11.23,8.56c-.34-.13-.66-.1-1,0,.17-.37.83-.37,1,0Z"/>
  <path class="st3" d="M13.02,11.27c-.32.49-.95.57-1.37.14-.02-.1.03-.06.09-.05.15.01.37.07.51.07.25,0,.53-.12.77-.16Z"/>
  <path class="st0" d="M11.32,9.74c-.31.28-.89.11-.79-.39-.31.07-.55.02-.7-.19.4,0,.73-.06.97-.19.45-.08.71.1.86.4l-.31-.13.05.17c-.38-.31-.69.28-.08.33Z"/>
  <path class="st0" d="M13.15,9.62c.34.21.83-.07.63-.54.3,0,.51-.09.59-.33-.36.08-.67.09-.92,0-.43.01-.62.23-.7.57l.26-.19v.18c.27-.38.68.13.13.31Z"/>
  <g>
    <path class="st4" d="M11.59,11.3c.3-.15.57-.19.81-.09.16-.12.43-.12.77-.06-.49.23-1.02.26-1.58.14Z"/>
    <path class="st4" d="M11.59,11.44c.24.87,1.48.9,1.58-.13-.19.26-.4.47-.7.52-.37.01-.65-.15-.88-.4Z"/>
  </g>
  <path class="st1" d="M12.05,10.59c.25.24.44.22.55-.06-.16.13-.34.15-.55.06Z"/>
  <path class="st2" d="M15.13,19.37c.04.25,0,.48-.09.7-.1.22-.26.4-.49.55s-.52.25-.86.3c-.41.06-.76.04-1.04-.08-.2-.08-.38-.21-.52-.37-.15-.17-.23-.34-.26-.51-.02-.1,0-.19.07-.28.06-.08.14-.13.25-.15.09-.01.17,0,.24.05.07.05.13.12.19.23.07.12.15.22.22.3s.17.14.29.18c.12.04.27.05.45.02.25-.04.44-.13.58-.26.14-.14.19-.29.17-.47-.02-.14-.08-.24-.18-.31-.1-.07-.21-.12-.35-.15-.14-.03-.32-.05-.55-.06-.31-.02-.57-.07-.78-.13-.21-.06-.39-.17-.53-.31-.14-.14-.23-.33-.27-.57-.03-.23,0-.44.09-.63.1-.2.26-.36.48-.49.22-.13.49-.22.81-.27.25-.04.48-.04.67,0,.19.03.36.1.5.18.14.09.24.18.32.29s.12.21.14.32c.02.1,0,.19-.06.29-.06.09-.14.14-.25.16-.1.01-.17,0-.23-.04-.06-.04-.12-.11-.2-.21-.1-.14-.21-.25-.33-.32-.12-.07-.29-.09-.53-.05-.22.03-.38.11-.5.22-.12.11-.17.24-.15.37.01.08.05.15.1.2.05.05.12.1.21.13.09.03.17.05.25.07.08.01.22.03.42.05.24.02.46.05.66.08s.37.09.52.17c.15.07.27.18.36.31.1.13.16.3.19.51Z"/>
</svg>