<svg width="82" height="75" viewBox="0 0 82 75" fill="none" xmlns="http://www.w3.org/2000/svg">
<g id="Group 2">
<path id="Vector" d="M72.1669 50.7983C72.1438 50.7056 72.1206 50.613 72.0859 50.5203C71.9006 49.9644 71.5878 49.4548 71.1941 49.0031C69.0398 46.5014 64.3723 45.4243 64.3723 45.4243C59.7511 44.8915 59.3342 41.3011 59.3342 41.3011C61.5463 39.5291 62.4613 37.0274 62.4613 37.0274C65.7621 35.6607 64.8819 30.9006 64.8819 30.9006C64.3839 30.3678 63.411 25.1907 63.411 25.1907C58.813 16.0989 50.4856 19.9441 49.061 20.6853C49.0147 20.7085 48.9684 20.7316 48.9452 20.7548C48.8873 20.7895 48.8525 20.8127 48.8525 20.8127C47.8565 22.3415 47.3585 24.2757 47.1732 26.3373C47.2311 26.3604 47.289 26.3836 47.3353 26.4068C47.6828 26.5689 47.9491 26.789 47.9839 27.0554V29.7424C48.2155 28.7579 48.6325 28.0514 49.4432 28.0167C49.4432 28.0167 49.4432 28.0167 49.4548 28.0282C49.5011 28.0282 49.559 28.0167 49.6169 28.0167C49.6169 28.0167 51.528 29.5918 50.2424 33.1127C50.2424 33.1127 49.6285 35.7302 48.1229 35.6144C48.0765 35.6144 48.0302 35.6144 47.9723 35.6144C47.9723 35.6144 47.926 35.6144 47.9028 35.6144C47.9028 35.6607 47.9144 35.6955 47.926 35.7418C48.1345 36.7957 48.3545 37.7686 48.5514 38.5909C48.5977 38.7763 48.6441 38.9616 48.6788 39.1469C48.8989 40.0734 49.0842 40.7799 49.1652 41.1853C49.1652 41.22 49.1652 41.2548 49.1768 41.278C49.1768 41.3474 49.2 41.4054 49.2 41.4517C49.2695 42.6099 48.4935 43.5364 48.285 43.7565C48.2503 43.7912 48.2387 43.8144 48.2387 43.8144L48.9336 43.9765L49.6169 44.1271C50.1729 43.5364 50.474 42.7952 50.6014 41.9497C53.4853 43.4554 56.0565 43.1426 58.4308 41.776C58.6856 43.7333 59.7395 44.8683 61.1873 45.6096C61.3147 47.6596 60.2839 49.2811 58.8246 50.752L58.7898 50.7867L58.6972 51.1689L58.6161 51.528H72.1785C72.1785 51.0878 72.1785 50.7983 72.1785 50.7983M50.474 40.3861C50.4045 40.3398 50.335 40.3051 50.2655 40.2587C49.5822 39.9808 49.0842 39.6217 48.8525 39.1353C48.7715 38.9616 48.7251 38.7878 48.7251 38.5794C48.7251 38.5562 48.7251 38.533 48.7251 38.5099C50.1034 38.7531 51.1689 38.4056 52.0028 37.5602C52.0028 37.5602 52.0144 37.5486 52.026 37.537C51.9565 37.537 51.8986 37.5486 51.8407 37.5602C51.1689 37.6065 50.6825 37.3864 50.4277 36.8537C50.1381 36.2398 50.1613 35.1859 50.5898 33.576C51.3311 31.526 51.4006 29.2559 51.0994 26.8469C51.0647 26.6268 51.0415 26.4068 51.0068 26.1867C51.0068 26.1751 51.0068 26.152 51.0068 26.1404C50.9141 25.5034 50.7867 24.8664 50.6477 24.2178C50.6825 24.2178 50.7172 24.2294 50.7404 24.2409C53.578 24.8664 56.1955 24.9938 58.4424 24.2178C59.9828 23.8935 60.9788 24.9474 61.3263 27.6692C61.72 30.0203 61.6158 32.2093 60.4924 34.074C61.1989 34.2246 61.7895 33.3675 62.1138 30.3446C62.7045 29.1054 63.2836 29.0938 63.8511 31.028C64.187 33.1706 63.7006 34.989 61.6506 36.1935C59.0215 41.0695 55.628 43.5133 50.4972 40.3746" fill="white"/>
<path id="Vector_2" d="M31.2017 30.0551C31.2596 29.2559 31.3291 28.2136 31.387 27.2291L31.2017 30.0551ZM33.7613 43.8607V43.8144V43.7333L32.6147 41.5907L32.9621 41.2664L33.0316 41.1969L34.433 39.8766L33.1938 36.9L31.2827 31.8619L31.1206 31.4449L31.3638 32.2788L32.3483 35.6955V37.4791L33.2285 38.2319L33.1127 38.5794L33.0895 38.6489C33.7381 38.9037 29.5686 41.7412 28.7 41.4054V40.1777H26.789V41.278C23.6039 40.7799 21.5308 39.0542 20.4768 36.2051C20.4768 36.2051 16.3421 33.8655 19.0175 29.8235C19.0175 29.8235 20.5116 30.7732 20.6853 34.4678C20.6853 34.4678 22.5152 36.5757 21.3918 33.298C20.2683 30.0319 20.2104 22.3068 25.5034 24.2178C25.5034 24.2178 28.3873 28.8737 30.8195 26.5921L30.9469 26.7079L31.109 26.8469L31.4217 27.1364C31.4565 26.4994 31.4912 25.8856 31.5028 25.3876C31.5028 25.3876 31.4449 25.3876 31.3407 25.4107C31.2943 25.4107 31.2364 25.4223 31.1669 25.4339C30.4488 25.515 28.8274 25.5961 28.5957 24.5884V24.5305L31.4101 24.4379H31.5028C31.5028 24.322 31.5028 24.241 31.4796 24.1946C31.4796 24.1715 31.4796 24.1599 31.4681 24.1599C31.4217 24.0904 31.526 23.8124 31.7344 23.4302C31.8734 23.1754 32.0356 22.8743 32.2325 22.5616C32.8695 21.5076 33.6802 20.2799 33.8308 20.0483C33.8423 20.0251 33.8539 20.0136 33.8539 20.0136C33.8192 19.9904 33.796 19.9557 33.7613 19.9325C31.3175 17.7667 27.1712 18.1952 27.148 18.4037C27.1248 18.6122 23.3723 19.724 23.3723 19.724C19.0291 20.3379 17.9635 24.1251 18.0099 28.978C16.4347 32.9622 17.1875 35.5449 19.8051 37.0158C20.3031 38.4288 21.3455 39.946 22.689 41.5212C22.8164 43.965 18.5542 45.6328 13.2265 47.1153C12.0452 47.7175 11.1765 48.424 10.6206 49.2116C10.2152 49.7907 9.97201 50.4161 9.86777 51.0879C9.84461 51.2268 9.83302 51.3774 9.82144 51.528H24.8895C24.9474 49.9528 25.4455 47.3816 28.0282 47.0805C28.0282 47.0805 28.0282 47.0921 28.0398 47.1037C28.0977 47.1037 28.144 47.0805 28.202 47.0805C29.2212 49.0147 30.3446 50.5667 31.6418 51.3311L33.5296 51.2384C31.3638 49.9297 29.4991 48.4819 28.839 46.4783C30.472 45.7833 32.1514 45.2506 33.8771 45.0189L33.7729 43.8607H33.7613ZM31.5375 44.4977C31.2943 44.5904 31.0164 44.7062 30.7036 44.822C28.7231 45.6212 25.6539 46.9763 24.4262 48.1113C24.1483 48.3661 23.9745 48.6093 23.9166 48.8294C23.9166 48.8294 23.9051 48.8062 23.8819 48.7599C23.6387 48.3198 22.2836 45.8297 22.4342 44.7873C22.4342 44.7873 23.6734 43.2585 23.6734 42.4246C24.959 43.5712 26.2794 44.3935 27.6692 44.4283C29.4644 43.8607 30.7384 43.0963 31.6186 42.1814C31.7923 42.911 32.0471 43.5944 32.5104 44.1387C32.5104 44.1387 32.1398 44.2777 31.5375 44.5093M27.7966 47.6364C26.2678 48.3893 25.596 49.7559 25.5265 51.5511H30.6457C30.6457 51.5511 30.7616 51.5396 30.8195 51.528C29.4644 50.4161 28.5147 49.0958 27.8082 47.6364M31.4912 24.5074V24.7622V25.4107C31.4912 25.1559 31.4912 24.9359 31.4912 24.7506C31.4912 24.6695 31.4912 24.5884 31.4912 24.5189" fill="white"/>
<path id="Vector_3" d="M30.9816 51.5048C30.9816 51.5048 30.8774 51.5164 30.8195 51.528H25.5266C25.596 49.7328 26.2678 48.3661 27.7966 47.6133C27.8429 47.5901 27.8893 47.5669 27.9356 47.5438C28.6421 49.0263 29.6034 50.3814 30.9816 51.5048Z" fill="#249D64"/>
<path id="Vector_4" d="M30.9816 51.5048C30.9816 51.5048 30.8774 51.5164 30.8195 51.528H25.5266C25.596 49.7328 26.2678 48.3661 27.7966 47.6133C27.8429 47.5901 27.8893 47.5669 27.9356 47.5438C28.6421 49.0263 29.6034 50.3814 30.9816 51.5048Z" fill="#249D64"/>
<path id="Vector_5" d="M58.8709 51.1689C58.8709 51.0299 58.8477 50.8794 58.8246 50.7404C58.5698 48.7483 57.6548 47.1153 55.4079 46.2119C53.5085 45.4359 51.3311 44.6946 48.922 43.965C48.7483 43.9186 48.5746 43.8607 48.4009 43.8144C48.3545 43.7913 48.3198 43.7797 48.285 43.7565C47.3932 43.3396 46.7331 42.8531 46.9531 42.0887C47.6249 42.0308 48.3777 41.7528 49.1768 41.278C49.2232 41.2432 49.2811 41.2085 49.3274 41.1853C49.698 40.9653 50.0687 40.6989 50.4624 40.3862C50.474 40.3862 50.4972 40.363 50.5088 40.3514C50.4277 40.3167 50.3466 40.2935 50.254 40.2588C49.5706 39.9808 49.0726 39.6218 48.841 39.1353C48.7599 38.9732 48.7136 38.7879 48.7136 38.5794C48.7136 38.5562 48.7136 38.5331 48.7136 38.5099C50.0918 38.7531 51.1574 38.4057 51.9912 37.5602C51.9912 37.5602 52.0028 37.5486 52.0144 37.537C52.0723 37.4791 52.1187 37.4212 52.1766 37.3633C51.4816 37.3749 50.9257 37.2359 50.5898 36.8421C50.2076 36.3904 50.1266 35.6144 50.4624 34.352C51.3542 31.387 51.5164 28.9548 51.2616 26.8353C51.2384 26.6037 51.2037 26.3952 51.1689 26.1752C51.1689 26.1636 51.1689 26.1404 51.1689 26.1288C51.0647 25.4687 50.9141 24.8316 50.7288 24.2294C50.4856 23.3955 50.1845 22.5963 49.8486 21.8203C49.8486 21.8203 49.6285 21.3687 49.1305 20.7201C49.1189 20.6969 49.0958 20.6737 49.0726 20.6506C47.9492 19.226 45.5054 16.9791 41.1737 16.7359C37.537 16.9444 35.2322 18.5542 33.9119 19.9093C33.8771 19.9441 33.8424 19.9904 33.8076 20.0252C32.8927 20.998 32.4989 21.8088 32.4989 21.8088C32.3946 22.052 32.2904 22.2952 32.1977 22.5384C32.0819 22.828 31.9777 23.1175 31.8735 23.4071C31.7924 23.6619 31.6997 23.9167 31.6302 24.1715C31.6071 24.2526 31.5839 24.3336 31.5607 24.4147C31.5376 24.5074 31.5144 24.5884 31.4913 24.6811C31.4913 24.6811 31.4913 24.6927 31.4913 24.7042C31.4333 24.9243 31.3754 25.1444 31.3291 25.376C31.3291 25.376 31.3291 25.3876 31.3291 25.3992C31.2364 25.8045 31.167 26.2331 31.109 26.6616C31.109 26.7079 31.109 26.7542 31.0975 26.8006C30.9122 28.2946 30.9469 29.9393 31.2828 31.8155C31.3059 31.9545 31.3291 32.0819 31.3638 32.2209C31.5028 32.8927 31.6766 33.5992 31.8966 34.3288C32.5336 36.6915 31.6766 37.3633 30.1825 37.3285C30.9237 38.1856 31.885 38.6141 33.1011 38.5331C33.159 38.5331 33.217 38.5331 33.2749 38.5215C33.3907 38.5215 33.5065 38.4867 33.6339 38.4751C33.6339 39.3438 32.939 39.9229 31.8387 40.3167C32.2441 40.641 32.6494 40.9189 33.0316 41.1506C33.0664 41.1737 33.1011 41.1969 33.1359 41.2085C33.9466 41.6949 34.6994 41.9845 35.3944 42.0424C35.626 42.8415 34.9079 43.3396 33.9582 43.7681C33.9003 43.7797 33.854 43.8028 33.8076 43.8144C33.1011 44.0229 32.4178 44.2429 31.7576 44.4514C31.4218 44.5557 31.0859 44.6715 30.75 44.7757C29.3833 45.2274 28.1093 45.6907 26.9511 46.1655C25.8161 46.6288 25.017 47.2658 24.4726 48.0534C24.3336 48.2619 24.2062 48.4819 24.102 48.702C23.7082 49.5243 23.5229 50.4624 23.4766 51.4816H25.098C25.1559 49.9412 25.6424 47.4396 28.0746 47.0574C28.1325 47.0574 28.1788 47.0342 28.2367 47.0342C29.2675 48.9684 30.3794 50.5203 31.6766 51.2847C31.6766 51.2847 31.6766 51.2847 31.6881 51.2847L33.7381 51.1805C31.5723 49.8718 29.7076 48.424 29.059 46.4203C30.6921 45.7254 32.3715 45.1927 34.0972 44.9494C34.1203 44.9494 34.1435 44.9494 34.1667 44.9494C35.904 44.185 37.1085 42.9458 37.4559 40.9074C38.5331 41.498 39.6797 42.0076 41.2201 42.0308C42.7605 42.0076 43.9071 41.498 44.9842 40.9074C45.3316 42.9342 46.5362 44.185 48.2735 44.9494C50.0339 45.1811 51.7249 45.7254 53.3811 46.4203C52.7325 48.424 50.8562 49.8718 48.702 51.1805L50.752 51.2847C52.0607 50.5203 53.1726 48.9568 54.2034 47.0226C56.7746 47.3237 57.2726 49.9065 57.3421 51.4701H58.9636C58.9636 51.3427 58.952 51.2268 58.9404 51.111M41.2316 40.6989C36.541 41.0463 34.4099 35.5333 34.4099 35.5333C32.7884 35.8229 32.1398 33.0432 32.1398 33.0432C30.8658 29.5223 32.7653 27.9472 32.7653 27.9472C33.8308 27.9935 34.2014 29.1633 34.3983 30.6458V26.9743C34.5257 25.9898 37.5833 25.7814 37.5833 25.7814C37.3401 23.9398 39.4596 22.5153 39.4596 22.5153C39.5638 23.5808 38.811 25.1791 38.811 25.1791H43.6291C43.6291 25.1791 42.8763 23.5808 42.9805 22.5153C42.9805 22.5153 45.1 23.9398 44.8568 25.7814C44.8568 25.7814 46.2929 25.8856 47.2311 26.2678C47.289 26.291 47.3469 26.3141 47.3932 26.3373C47.7407 26.4994 48.0071 26.7195 48.0418 26.9859V30.6574C48.2271 29.2559 48.5746 28.1209 49.5127 27.9703C49.559 27.9703 49.617 27.9588 49.6749 27.9588C49.6749 27.9588 51.5859 29.5339 50.3003 33.0548C50.3003 33.0548 49.6864 35.6723 48.1808 35.5565C48.1576 35.5565 48.1461 35.5565 48.1229 35.5565C48.0881 35.5565 48.065 35.5565 48.0302 35.5565C48.0302 35.5565 48.0302 35.5565 48.0302 35.5797C48.0302 35.5797 48.0071 35.6376 47.9839 35.7071C47.6133 36.5641 45.4706 41.0463 41.2316 40.7336" fill="#249D64"/>
<path id="Vector_6" d="M30.9816 51.5048C30.9816 51.5048 30.8774 51.5164 30.8195 51.528H25.5266C25.596 49.7328 26.2678 48.3661 27.7966 47.6133C27.8429 47.5901 27.8893 47.5669 27.9356 47.5438C28.6421 49.0263 29.6034 50.3814 30.9816 51.5048Z" fill="#249D64"/>
<path id="Vector_7" d="M56.8209 51.528H51.528C51.528 51.528 51.4237 51.5164 51.3658 51.5048C52.7441 50.3814 53.7054 49.0263 54.4119 47.5438C56.0449 48.285 56.7514 49.6749 56.8209 51.528Z" fill="#249D64"/>
<path id="Vector_8" d="M40.9884 0C18.5079 0 0.220062 18.2879 0.220062 40.7684C0.220062 44.4977 0.718085 48.0997 1.65622 51.528H5.91837C4.87599 48.1229 4.30848 44.5093 4.30848 40.7684C4.30848 20.5463 20.7664 4.08842 40.9884 4.08842C61.2104 4.08842 77.6684 20.5463 77.6684 40.7684C77.6684 44.5093 77.1008 48.1229 76.0585 51.528H80.3206C81.2587 48.0997 81.7568 44.4862 81.7568 40.7684C81.7568 18.2879 63.4689 0 40.9884 0Z" fill="#249D64"/>
<path id="Vector_9" d="M11.3502 60.6893C11.3502 60.6893 11.3502 60.7588 11.3039 60.7588H9.47398C9.47398 60.7588 9.41607 60.7356 9.42765 60.6893L10.3542 57.5274C10.3542 57.5274 10.3658 57.4927 10.3889 57.4927C10.4005 57.4927 10.4121 57.5043 10.4237 57.5274L11.3502 60.6893Z" fill="white"/>
<path id="Vector_10" d="M44.4282 60.6893L43.5017 57.5274C43.5017 57.5274 43.4785 57.4811 43.4669 57.4927C43.4438 57.4927 43.4322 57.5043 43.4322 57.5274L42.5056 60.6893C42.5056 60.6893 42.5172 60.7588 42.5636 60.7588H44.3819C44.3819 60.7588 44.4514 60.7356 44.4282 60.6893ZM44.4282 60.6893L43.5017 57.5274C43.5017 57.5274 43.4785 57.4811 43.4669 57.4927C43.4438 57.4927 43.4322 57.5043 43.4322 57.5274L42.5056 60.6893C42.5056 60.6893 42.5172 60.7588 42.5636 60.7588H44.3819C44.3819 60.7588 44.4514 60.7356 44.4282 60.6893ZM44.4282 60.6893L43.5017 57.5274C43.5017 57.5274 43.4785 57.4811 43.4669 57.4927C43.4438 57.4927 43.4322 57.5043 43.4322 57.5274L42.5056 60.6893C42.5056 60.6893 42.5172 60.7588 42.5636 60.7588H44.3819C44.3819 60.7588 44.4514 60.7356 44.4282 60.6893ZM61.6737 57.5274C61.6737 57.5274 61.6737 57.4811 61.639 57.4927C61.6274 57.4927 61.6158 57.5043 61.6042 57.5274L60.6893 60.6893C60.6893 60.6893 60.6893 60.7588 60.7356 60.7588H62.5655C62.5655 60.7588 62.6234 60.7356 62.6119 60.6893L61.6737 57.5274ZM61.6737 57.5274C61.6737 57.5274 61.6737 57.4811 61.639 57.4927C61.6274 57.4927 61.6158 57.5043 61.6042 57.5274L60.6893 60.6893C60.6893 60.6893 60.6893 60.7588 60.7356 60.7588H62.5655C62.5655 60.7588 62.6234 60.7356 62.6119 60.6893L61.6737 57.5274ZM44.4282 60.6893L43.5017 57.5274C43.5017 57.5274 43.4785 57.4811 43.4669 57.4927C43.4438 57.4927 43.4322 57.5043 43.4322 57.5274L42.5056 60.6893C42.5056 60.6893 42.5172 60.7588 42.5636 60.7588H44.3819C44.3819 60.7588 44.4514 60.7356 44.4282 60.6893ZM82 52.2113H0L3.5209 59.2995L0 66.3876H82L78.4791 59.2995L82 52.2113ZM14.2226 63.5848H12.3463C12.2537 63.5848 12.1958 63.55 12.1726 63.4689L11.8599 62.3687C11.8599 62.3687 11.8251 62.3223 11.7904 62.3223H8.99915C8.99915 62.3223 8.95282 62.3455 8.94124 62.3687L8.61695 63.4689C8.59379 63.55 8.53588 63.5848 8.4548 63.5848H6.57853C6.52062 63.5848 6.48588 63.5732 6.46271 63.55C6.43955 63.5153 6.43955 63.4689 6.45113 63.411L9.06864 55.13C9.10339 55.0489 9.14972 55.0141 9.23079 55.0141H11.5472C11.6282 55.0141 11.6862 55.0489 11.7093 55.13L14.35 63.411C14.35 63.411 14.3616 63.4574 14.3616 63.4805C14.3616 63.55 14.3153 63.5848 14.2226 63.5848ZM21.4034 63.4458C21.4034 63.4458 21.3918 63.5153 21.3571 63.55C21.3339 63.5732 21.2992 63.5848 21.2528 63.5848H15.404C15.404 63.5848 15.3229 63.5732 15.2997 63.55C15.265 63.5153 15.2534 63.4805 15.2534 63.4458V55.1531C15.2534 55.1531 15.265 55.0836 15.2997 55.0489C15.3229 55.0257 15.3576 55.0141 15.404 55.0141H17.1412C17.1412 55.0141 17.2107 55.0141 17.2455 55.0489C17.2686 55.0836 17.2918 55.1184 17.2918 55.1531V61.7896C17.2918 61.7896 17.2918 61.8475 17.3497 61.8475H21.2528C21.2528 61.8475 21.3339 61.8591 21.3571 61.8938C21.3918 61.917 21.4034 61.9517 21.4034 61.998V63.4458ZM31.1554 57.8054C31.1554 57.8054 31.1438 57.8749 31.1206 57.9096C31.0859 57.9328 31.0511 57.9444 31.0164 57.9444H29.2675C29.2675 57.9444 29.198 57.9328 29.1633 57.9096C29.1401 57.8749 29.1285 57.8401 29.1285 57.8054C29.1285 57.4811 29.0127 57.2147 28.7927 56.9831C28.561 56.763 28.2599 56.6472 27.8777 56.6472C27.4955 56.6472 27.1943 56.7746 26.9743 57.0178C26.7427 57.261 26.6268 57.5853 26.6268 57.9791V60.6082C26.6268 61.002 26.7542 61.3263 27.009 61.5695C27.2638 61.8127 27.5766 61.9285 27.9588 61.9285C28.3178 61.9285 28.6073 61.8359 28.8274 61.6506C29.0475 61.4537 29.1633 61.1873 29.1633 60.8398V60.504C29.1633 60.504 29.1401 60.4345 29.1054 60.4345H27.8777C27.8777 60.4345 27.7966 60.4229 27.7734 60.3997C27.7387 60.365 27.7271 60.3302 27.7271 60.2955V58.9404C27.7271 58.9404 27.7387 58.8709 27.7734 58.8362C27.7966 58.813 27.8314 58.7898 27.8777 58.7898H31.0164C31.0164 58.7898 31.0859 58.813 31.1206 58.8362C31.1438 58.8709 31.1554 58.9057 31.1554 58.9404V60.6082C31.1554 61.2221 31.028 61.7664 30.75 62.2297C30.472 62.693 30.0898 63.052 29.5918 63.3068C29.1054 63.5616 28.5263 63.689 27.8777 63.689C27.2291 63.689 26.65 63.5616 26.152 63.2952C25.654 63.0288 25.2718 62.6698 25.0054 62.1949C24.7274 61.7201 24.5884 61.1641 24.5884 60.5503V58.037C24.5884 57.4116 24.7274 56.8672 25.0054 56.404C25.2718 55.9291 25.654 55.5701 26.152 55.3037C26.65 55.0373 27.2175 54.9099 27.8777 54.9099C28.5379 54.9099 29.0938 55.0373 29.5918 55.2805C30.0898 55.5353 30.472 55.8712 30.75 56.3113C31.028 56.7398 31.1554 57.2147 31.1554 57.7475V57.8054ZM38.7068 63.4458C38.7068 63.4458 38.6952 63.5153 38.672 63.55C38.6373 63.5732 38.6025 63.5848 38.5678 63.5848H36.8189C36.8189 63.5848 36.7494 63.5732 36.7147 63.55C36.6915 63.5153 36.6799 63.4805 36.6799 63.4458V60.1797C36.6799 60.1797 36.6568 60.1218 36.6105 60.1218H34.3172C34.3172 60.1218 34.2593 60.1449 34.2593 60.1797V63.4458C34.2593 63.4458 34.2477 63.5153 34.213 63.55C34.1898 63.5732 34.1551 63.5848 34.1088 63.5848H32.3715C32.3715 63.5848 32.302 63.5732 32.2672 63.55C32.2441 63.5153 32.2209 63.4805 32.2209 63.4458V55.1531C32.2209 55.1531 32.2441 55.0836 32.2672 55.0489C32.302 55.0257 32.3367 55.0141 32.3715 55.0141H34.1088C34.1088 55.0141 34.1898 55.0141 34.213 55.0489C34.2477 55.0836 34.2593 55.1184 34.2593 55.1531V58.315C34.2593 58.315 34.2825 58.3845 34.3172 58.3845H36.6105C36.6105 58.3845 36.6799 58.3613 36.6799 58.315V55.1531C36.6799 55.1531 36.6915 55.0836 36.7147 55.0489C36.7494 55.0257 36.7842 55.0141 36.8189 55.0141H38.5678C38.5678 55.0141 38.6373 55.0141 38.672 55.0489C38.6952 55.0836 38.7068 55.1184 38.7068 55.1531V63.4458ZM47.3006 63.5848H45.4243C45.3316 63.5848 45.2737 63.55 45.2506 63.4689L44.9379 62.3687C44.9379 62.3687 44.9031 62.3223 44.8799 62.3223H42.0771C42.0771 62.3223 42.0308 62.3455 42.0192 62.3687L41.6949 63.4689C41.6717 63.55 41.6138 63.5848 41.5328 63.5848H39.6565C39.5986 63.5848 39.5638 63.5732 39.5407 63.55C39.5175 63.5153 39.5175 63.4689 39.5291 63.411L42.1582 55.13C42.1814 55.0489 42.2277 55.0141 42.3088 55.0141H44.6251C44.7062 55.0141 44.7641 55.0489 44.7873 55.13L47.428 63.411C47.428 63.411 47.4395 63.4574 47.4395 63.4805C47.4395 63.55 47.3932 63.5848 47.3006 63.5848ZM56.1607 63.5848H54.4119C54.3192 63.5848 54.2729 63.5384 54.2497 63.4574L53.1842 58.7204C53.1842 58.7204 53.161 58.674 53.1494 58.674C53.1263 58.674 53.1147 58.6856 53.1147 58.7204L52.1534 63.4574C52.1418 63.5384 52.0839 63.5848 51.9912 63.5848H50.3582C50.2655 63.5848 50.2076 63.55 50.1845 63.4689L47.9028 55.1647V55.1184C47.8912 55.0489 47.9376 55.0141 48.0302 55.0141H49.8833C49.9644 55.0141 50.0223 55.0489 50.0455 55.13L51.111 59.589C51.111 59.589 51.1342 59.6469 51.1458 59.6469C51.1689 59.6469 51.1805 59.6237 51.1921 59.589L52.1418 55.1415C52.1534 55.0489 52.2113 55.0141 52.304 55.0141H54.0065C54.0876 55.0141 54.1455 55.0489 54.1686 55.13L55.2342 59.589C55.2342 59.589 55.2458 59.6469 55.2689 59.6469C55.2805 59.6469 55.2921 59.6237 55.3037 59.589L56.2997 55.1415C56.3113 55.0489 56.3692 55.0141 56.4619 55.0141H58.2686C58.3845 55.0141 58.4308 55.0605 58.4076 55.1647L56.3345 63.4689C56.3113 63.55 56.2534 63.5848 56.1607 63.5848ZM65.4726 63.5848H63.6079C63.5153 63.5848 63.4573 63.55 63.4342 63.4689L63.1099 62.3687C63.1099 62.3687 63.0751 62.3223 63.052 62.3223H60.2607C60.2607 62.3223 60.2144 62.3455 60.1912 62.3687L59.8785 63.4689C59.8554 63.55 59.7975 63.5848 59.7048 63.5848H57.8285C57.8285 63.5848 57.7475 63.5732 57.7243 63.55C57.6895 63.5153 57.6895 63.4689 57.7011 63.411L60.3302 55.13C60.3534 55.0489 60.4113 55.0141 60.4924 55.0141H62.8088C62.8898 55.0141 62.9362 55.0489 62.9593 55.13L65.6 63.411C65.6 63.411 65.6116 63.4574 65.6116 63.4805C65.6116 63.55 65.5652 63.5848 65.4726 63.5848ZM72.665 63.4458C72.665 63.4458 72.6418 63.5153 72.6186 63.55C72.5839 63.5732 72.5491 63.5848 72.5144 63.5848H66.654C66.654 63.5848 66.5729 63.5732 66.5497 63.55C66.5266 63.5153 66.5034 63.4805 66.5034 63.4458V55.1531C66.5034 55.1531 66.5266 55.0836 66.5497 55.0489C66.5729 55.0257 66.6076 55.0141 66.654 55.0141H68.3912C68.3912 55.0141 68.4723 55.0141 68.4955 55.0489C68.5302 55.0836 68.5418 55.1184 68.5418 55.1531V61.7896C68.5418 61.7896 68.565 61.8475 68.5997 61.8475H72.5144C72.5144 61.8475 72.5839 61.8591 72.6186 61.8938C72.6418 61.917 72.665 61.9517 72.665 61.998V63.4458ZM75.5604 63.4458C75.5604 63.4458 75.5489 63.5153 75.5257 63.55C75.491 63.5732 75.4562 63.5848 75.4215 63.5848H73.6726C73.6726 63.5848 73.6031 63.5732 73.5684 63.55C73.5452 63.5153 73.5336 63.4805 73.5336 63.4458V55.1531C73.5336 55.1531 73.5336 55.0836 73.5684 55.0489C73.6031 55.0257 73.6378 55.0141 73.6726 55.0141H75.4215C75.4215 55.0141 75.491 55.0141 75.5257 55.0489C75.5489 55.0836 75.5604 55.1184 75.5604 55.1531V63.4458ZM61.639 57.4927C61.639 57.4927 61.6158 57.5043 61.6042 57.5274L60.6893 60.6893C60.6893 60.6893 60.6893 60.7588 60.7356 60.7588H62.5655C62.5655 60.7588 62.6234 60.7356 62.6119 60.6893L61.6737 57.5274C61.6737 57.5274 61.6737 57.4811 61.639 57.4927ZM43.5017 57.5274C43.5017 57.5274 43.4785 57.4811 43.4669 57.4927C43.4438 57.4927 43.4322 57.5043 43.4322 57.5274L42.5056 60.6893C42.5056 60.6893 42.5172 60.7588 42.5636 60.7588H44.3819C44.3819 60.7588 44.4514 60.7356 44.4282 60.6893L43.5017 57.5274ZM44.4282 60.6893L43.5017 57.5274C43.5017 57.5274 43.4785 57.4811 43.4669 57.4927C43.4438 57.4927 43.4322 57.5043 43.4322 57.5274L42.5056 60.6893C42.5056 60.6893 42.5172 60.7588 42.5636 60.7588H44.3819C44.3819 60.7588 44.4514 60.7356 44.4282 60.6893ZM61.6737 57.5274C61.6737 57.5274 61.6737 57.4811 61.639 57.4927C61.6274 57.4927 61.6158 57.5043 61.6042 57.5274L60.6893 60.6893C60.6893 60.6893 60.6893 60.7588 60.7356 60.7588H62.5655C62.5655 60.7588 62.6234 60.7356 62.6119 60.6893L61.6737 57.5274ZM61.6737 57.5274C61.6737 57.5274 61.6737 57.4811 61.639 57.4927C61.6274 57.4927 61.6158 57.5043 61.6042 57.5274L60.6893 60.6893C60.6893 60.6893 60.6893 60.7588 60.7356 60.7588H62.5655C62.5655 60.7588 62.6234 60.7356 62.6119 60.6893L61.6737 57.5274ZM44.4282 60.6893L43.5017 57.5274C43.5017 57.5274 43.4785 57.4811 43.4669 57.4927C43.4438 57.4927 43.4322 57.5043 43.4322 57.5274L42.5056 60.6893C42.5056 60.6893 42.5172 60.7588 42.5636 60.7588H44.3819C44.3819 60.7588 44.4514 60.7356 44.4282 60.6893ZM44.4282 60.6893L43.5017 57.5274C43.5017 57.5274 43.4785 57.4811 43.4669 57.4927C43.4438 57.4927 43.4322 57.5043 43.4322 57.5274L42.5056 60.6893C42.5056 60.6893 42.5172 60.7588 42.5636 60.7588H44.3819C44.3819 60.7588 44.4514 60.7356 44.4282 60.6893ZM44.4282 60.6893L43.5017 57.5274C43.5017 57.5274 43.4785 57.4811 43.4669 57.4927C43.4438 57.4927 43.4322 57.5043 43.4322 57.5274L42.5056 60.6893C42.5056 60.6893 42.5172 60.7588 42.5636 60.7588H44.3819C44.3819 60.7588 44.4514 60.7356 44.4282 60.6893Z" fill="white"/>
<path id="Vector_11" d="M40.861 5.8952C22.5384 5.8952 7.62091 20.8011 7.62091 39.1353C7.62091 43.3511 8.40848 47.3816 9.84464 51.0994C9.90255 51.25 9.96046 51.389 10.0184 51.5396H11.4661C11.1418 50.7867 10.8523 50.0107 10.5975 49.2232C9.53193 46.0497 8.96441 42.6562 8.96441 39.1353C8.96441 21.5424 23.2681 7.23871 40.861 7.23871C58.454 7.23871 72.7576 21.5424 72.7576 39.1353C72.7576 42.5751 72.2133 45.8876 71.1941 49.0031C70.9161 49.8602 70.5918 50.7057 70.2443 51.5396H71.6921C71.8311 51.2037 71.9585 50.8678 72.0859 50.5319C73.383 46.9763 74.0895 43.1427 74.0895 39.1469C74.0895 20.8243 59.1836 5.90678 40.861 5.90678" fill="white"/>
<g id="Group">
<path id="Vector_12" d="M0.416931 73.8927V67.8469C0.416931 67.7427 0.474841 67.6963 0.567496 67.6963H1.54038C1.62145 67.6963 1.67936 67.7195 1.72569 67.8006L3.04603 69.9316C3.04603 69.9316 3.10394 69.9664 3.11552 69.9316L4.44744 67.8006C4.49377 67.7311 4.55168 67.6963 4.63275 67.6963H5.60563C5.70987 67.6963 5.7562 67.7542 5.7562 67.8469V73.8927C5.7562 73.9969 5.69829 74.0432 5.60563 74.0432H4.63275C4.52851 74.0432 4.48218 73.9853 4.48218 73.8927V69.9548C4.48218 69.9548 4.44744 69.8853 4.41269 69.9316L3.49772 71.4257C3.45139 71.4952 3.39348 71.5299 3.31241 71.5299H2.84913C2.76806 71.5299 2.71015 71.5068 2.66382 71.4257L1.76043 69.9316C1.76043 69.9316 1.70252 69.8969 1.70252 69.9548V73.8927C1.70252 73.9969 1.64461 74.0432 1.55196 74.0432H0.567496C0.463259 74.0432 0.416931 73.9853 0.416931 73.8927Z" fill="#249D64"/>
<path id="Vector_13" d="M10.7828 73.9158L10.528 73.0703C10.528 73.0703 10.5048 73.024 10.47 73.024H8.24632C8.24632 73.024 8.19999 73.024 8.18841 73.0703L7.93361 73.9158C7.91044 73.9969 7.85253 74.0432 7.75988 74.0432H6.70592C6.60169 74.0432 6.54378 73.9737 6.57852 73.8695L8.5127 67.8121C8.53587 67.7311 8.59378 67.6847 8.68643 67.6847H10.0184C10.111 67.6847 10.1689 67.7311 10.1921 67.8121L12.1263 73.8695C12.161 73.9737 12.1031 74.0432 11.9989 74.0432H10.9449C10.8522 74.0432 10.7943 73.9969 10.7712 73.9158H10.7828ZM8.55903 72.0395H10.1689C10.1689 72.0395 10.2268 72.0164 10.2152 71.9816L9.39293 69.2136C9.39293 69.2136 9.33502 69.1672 9.32344 69.2136L8.5127 71.9816C8.5127 71.9816 8.5127 72.0395 8.55903 72.0395Z" fill="#249D64"/>
<path id="Vector_14" d="M12.9486 73.8927V67.8469C12.9486 67.7427 13.0065 67.6963 13.0991 67.6963H14.0373C14.1184 67.6963 14.1763 67.7195 14.2226 67.8006L16.4926 71.5763C16.4926 71.5763 16.5621 71.611 16.5621 71.5531V67.8469C16.5621 67.7427 16.62 67.6963 16.7127 67.6963H17.6624C17.7667 67.6963 17.813 67.7542 17.813 67.8469V73.8927C17.813 73.9969 17.7551 74.0432 17.6624 74.0432H16.7359C16.6548 74.0432 16.5969 74.0085 16.5506 73.939L14.2689 70.1285C14.2689 70.1285 14.1994 70.0938 14.1994 70.1517V73.9042C14.1994 74.0085 14.1531 74.0548 14.0604 74.0548H13.0991C12.9949 74.0548 12.9486 73.9969 12.9486 73.9042V73.8927Z" fill="#249D64"/>
<path id="Vector_15" d="M23.5113 69.6537C23.5113 70.8119 22.689 71.5763 21.4497 71.5763H20.1641C20.1641 71.5763 20.1062 71.5994 20.1062 71.6342V73.8926C20.1062 73.9969 20.0483 74.0432 19.9556 74.0432H18.9827C18.8785 74.0432 18.8322 73.9853 18.8322 73.8926V67.8353C18.8322 67.7311 18.8901 67.6847 18.9827 67.6847H21.496C22.7005 67.6847 23.4997 68.4723 23.4997 69.6537H23.5113ZM22.2373 69.6768C22.2373 69.1441 21.8666 68.785 21.3107 68.785H20.1641C20.1641 68.785 20.1062 68.8082 20.1062 68.8429V70.4991C20.1062 70.4991 20.1294 70.5571 20.1641 70.5571H21.3107C21.8666 70.5571 22.2373 70.198 22.2373 69.6884V69.6768Z" fill="#249D64"/>
<path id="Vector_16" d="M24.1715 71.8426V69.8969C24.1715 68.5302 25.1212 67.6152 26.5574 67.6152C27.9935 67.6152 28.9548 68.5302 28.9548 69.8969V71.8426C28.9548 73.2209 28.0051 74.1474 26.5574 74.1474C25.1096 74.1474 24.1715 73.2209 24.1715 71.8426ZM27.6808 71.889V69.8853C27.6808 69.1788 27.2407 68.7155 26.5689 68.7155C25.8972 68.7155 25.4571 69.1788 25.4571 69.8853V71.889C25.4571 72.5839 25.8972 73.0472 26.5689 73.0472C27.2407 73.0472 27.6808 72.5839 27.6808 71.889Z" fill="#249D64"/>
<path id="Vector_17" d="M30.9005 73.9158L29.3022 67.8701C29.2791 67.7658 29.3254 67.6963 29.4412 67.6963H30.472C30.5647 67.6963 30.6226 67.7427 30.6342 67.8353L31.4912 71.4605C31.4912 71.4605 31.5607 71.5068 31.5607 71.4605L32.383 67.8353C32.4062 67.7427 32.4525 67.6963 32.5452 67.6963H33.576C33.6686 67.6963 33.7265 67.7427 33.7497 67.8353L34.6415 71.4605C34.6415 71.4605 34.6994 71.5068 34.6994 71.4605L35.5217 67.8353C35.5449 67.7427 35.5912 67.6963 35.6839 67.6963H36.6683C36.7726 67.6963 36.8189 67.7658 36.7957 67.8701L35.3364 73.9158C35.3133 74.0085 35.2553 74.0548 35.1627 74.0548H34.1666C34.074 74.0548 34.0161 74.0085 33.9929 73.9158L33.0895 70.059C33.0895 70.059 33.0316 70.0011 33.02 70.059L32.1746 73.9158C32.1514 74.0085 32.1051 74.0548 32.0124 74.0548H31.0859C30.9932 74.0548 30.9353 73.9969 30.9121 73.9158H30.9005Z" fill="#249D64"/>
<path id="Vector_18" d="M41.7296 68.785H38.7994C38.7994 68.785 38.7415 68.8082 38.7415 68.8429V70.2328C38.7415 70.2328 38.7647 70.2907 38.7994 70.2907H40.6988C40.8031 70.2907 40.8494 70.3486 40.8494 70.4412V71.2288C40.8494 71.333 40.7915 71.3794 40.6988 71.3794H38.7994C38.7994 71.3794 38.7415 71.4025 38.7415 71.4373V72.885C38.7415 72.885 38.7647 72.9429 38.7994 72.9429H41.7296C41.8339 72.9429 41.8802 73.0008 41.8802 73.0935V73.8811C41.8802 73.9853 41.8223 74.0316 41.7296 74.0316H37.6296C37.5254 74.0316 37.4791 73.9737 37.4791 73.8811V67.8353C37.4791 67.7311 37.537 67.6847 37.6296 67.6847H41.7296C41.8339 67.6847 41.8802 67.7426 41.8802 67.8353V68.6229C41.8802 68.7271 41.8223 68.7734 41.7296 68.7734V68.785Z" fill="#249D64"/>
<path id="Vector_19" d="M46.1192 73.9274L45.0073 71.4604C45.0073 71.4604 44.9726 71.4141 44.9494 71.4141H44.1271C44.1271 71.4141 44.0692 71.4373 44.0692 71.472V73.8926C44.0692 73.9969 44.0113 74.0432 43.9186 74.0432H42.9458C42.8415 74.0432 42.7952 73.9853 42.7952 73.8926V67.8353C42.7952 67.7311 42.8531 67.6847 42.9458 67.6847H45.4938C46.6636 67.6847 47.4395 68.4607 47.4395 69.5958C47.4395 70.4181 46.9994 71.0435 46.2814 71.2867C46.2466 71.2867 46.235 71.333 46.2582 71.3562L47.4627 73.8579C47.5206 73.9621 47.4627 74.0432 47.3585 74.0432H46.3277C46.2466 74.0432 46.1771 73.9969 46.1424 73.9274H46.1192ZM44.0576 68.8429V70.3717C44.0576 70.3717 44.0808 70.4297 44.1155 70.4297H45.2969C45.8065 70.4297 46.1655 70.1054 46.1655 69.6189C46.1655 69.1325 45.8065 68.7966 45.2969 68.7966H44.1155C44.1155 68.7966 44.0576 68.8198 44.0576 68.8545V68.8429Z" fill="#249D64"/>
<path id="Vector_20" d="M49.9528 72.2248V72.0743C49.9528 71.97 50.0107 71.9237 50.1034 71.9237H51.0531C51.1573 71.9237 51.2036 71.97 51.2036 72.0395V72.1669C51.2036 72.6302 51.6669 73.0356 52.4082 73.0356C53.1031 73.0356 53.3579 72.6881 53.3579 72.3291C53.3579 71.8658 52.8946 71.7037 52.0259 71.3794C51.0762 71.0551 49.9875 70.6265 49.9875 69.422C49.9875 68.3101 50.9025 67.6268 52.1997 67.6268C53.6011 67.6268 54.5856 68.4028 54.5856 69.5842V69.6768C54.5856 69.7811 54.5276 69.8274 54.435 69.8274H53.4853C53.381 69.8274 53.3347 69.7926 53.3347 69.7347V69.6421C53.3347 69.1672 52.9293 68.7271 52.1649 68.7271C51.5858 68.7271 51.2615 68.9819 51.2615 69.4104C51.2615 69.8853 51.6669 70.0474 52.6745 70.3949C53.4969 70.696 54.6435 71.0435 54.6435 72.2827C54.6435 73.3946 53.7401 74.1243 52.3155 74.1243C50.8909 74.1243 49.9528 73.383 49.9528 72.2248Z" fill="#249D64"/>
<path id="Vector_21" d="M55.4889 71.9353V67.8353C55.4889 67.7311 55.5468 67.6847 55.6395 67.6847H56.6124C56.7166 67.6847 56.7629 67.7426 56.7629 67.8353V71.9469C56.7629 72.5839 57.1915 73.024 57.8401 73.024C58.4886 73.024 58.9172 72.5839 58.9172 71.9469V67.8353C58.9172 67.7311 58.9751 67.6847 59.0677 67.6847H60.0406C60.1449 67.6847 60.1912 67.7426 60.1912 67.8353V71.9353C60.1912 73.2441 59.2415 74.1127 57.8401 74.1127C56.4386 74.1127 55.4889 73.2441 55.4889 71.9353Z" fill="#249D64"/>
<path id="Vector_22" d="M65.8779 69.6537C65.8779 70.8119 65.0556 71.5763 63.8164 71.5763H62.5308C62.5308 71.5763 62.4729 71.5994 62.4729 71.6342V73.8926C62.4729 73.9969 62.415 74.0432 62.3223 74.0432H61.3494C61.2452 74.0432 61.1989 73.9853 61.1989 73.8926V67.8353C61.1989 67.7311 61.2568 67.6847 61.3494 67.6847H63.8627C65.0672 67.6847 65.8664 68.4723 65.8664 69.6537H65.8779ZM64.6039 69.6768C64.6039 69.1441 64.2333 68.785 63.6774 68.785H62.5308C62.5308 68.785 62.4729 68.8082 62.4729 68.8429V70.4991C62.4729 70.4991 62.496 70.5571 62.5308 70.5571H63.6774C64.2333 70.5571 64.6039 70.198 64.6039 69.6884V69.6768Z" fill="#249D64"/>
<path id="Vector_23" d="M71.2983 69.6537C71.2983 70.8119 70.476 71.5763 69.2367 71.5763H67.9511C67.9511 71.5763 67.8932 71.5994 67.8932 71.6342V73.8926C67.8932 73.9969 67.8353 74.0432 67.7426 74.0432H66.7698C66.6655 74.0432 66.6192 73.9853 66.6192 73.8926V67.8353C66.6192 67.7311 66.6771 67.6847 66.7698 67.6847H69.283C70.4876 67.6847 71.2867 68.4723 71.2867 69.6537H71.2983ZM70.0243 69.6768C70.0243 69.1441 69.6537 68.785 69.0977 68.785H67.9511C67.9511 68.785 67.8932 68.8082 67.8932 68.8429V70.4991C67.8932 70.4991 67.9164 70.5571 67.9511 70.5571H69.0977C69.6537 70.5571 70.0243 70.198 70.0243 69.6884V69.6768Z" fill="#249D64"/>
<path id="Vector_24" d="M72.0858 73.8927V67.8469C72.0858 67.7427 72.1438 67.6963 72.2364 67.6963H73.2093C73.3135 67.6963 73.3599 67.7542 73.3599 67.8469V72.8966C73.3599 72.8966 73.383 72.9545 73.4178 72.9545H76.3364C76.4407 72.9545 76.487 73.0124 76.487 73.1051V73.8927C76.487 73.9969 76.4291 74.0432 76.3364 74.0432H72.2364C72.1322 74.0432 72.0858 73.9853 72.0858 73.8927Z" fill="#249D64"/>
<path id="Vector_25" d="M78.4212 73.8811V71.6342C78.4212 71.6342 78.4212 71.5763 78.398 71.5647L76.5681 67.87C76.5102 67.7658 76.5681 67.6847 76.6723 67.6847H77.7263C77.8073 67.6847 77.8768 67.7311 77.9116 67.8006L79.0235 70.1633C79.0235 70.1633 79.0814 70.198 79.0929 70.1633L80.2048 67.8006C80.2396 67.7311 80.309 67.6847 80.3901 67.6847H81.4557C81.5715 67.6847 81.6294 67.7658 81.5715 67.87L79.7184 71.5647C79.7184 71.5647 79.6952 71.6226 79.6952 71.6342V73.8811C79.6952 73.9853 79.6373 74.0316 79.5446 74.0316H78.5833C78.4791 74.0316 78.4328 73.9737 78.4328 73.8811H78.4212Z" fill="#249D64"/>
</g>
</g>
</svg>
