<svg width="68" height="69" viewBox="0 0 68 69" fill="none" xmlns="http://www.w3.org/2000/svg">
<g id="Frame 622">
<g id="Vector">
<path d="M31.6719 0.321963C32.0261 0.214642 32.5841 0.0858568 32.9061 0.0429284C33.2281 0 33.8827 -0.0107321 34.3549 0.0107321C34.8271 0.0429284 35.5247 0.139517 35.9111 0.225374C36.2974 0.311231 36.9414 0.547337 37.3599 0.740515C37.7785 0.944425 38.3151 1.23419 38.5619 1.4059C38.8087 1.57762 39.2917 1.98544 39.6244 2.3074C39.9571 2.62936 40.4722 3.26256 40.762 3.70257C41.0517 4.14259 41.3844 4.77578 41.5025 5.09775C41.6205 5.41971 41.7923 5.99924 41.8889 6.3856C41.9854 6.79342 42.0498 7.54466 42.0498 8.21005C42.0391 8.9613 41.9747 9.60523 41.8352 10.1418C41.7171 10.5818 41.4596 11.2794 41.2449 11.698C41.041 12.1165 40.6439 12.7497 40.3756 13.1146C40.1073 13.4902 39.56 14.059 39.1629 14.381C38.7551 14.7137 38.1219 15.143 37.7355 15.3362C37.3492 15.5401 36.7053 15.8084 36.2867 15.9372C35.8145 16.0874 35.1169 16.1947 34.4086 16.2269C33.593 16.2699 33.0456 16.2377 32.4232 16.1196C31.9509 16.023 31.2534 15.8191 30.867 15.6581C30.4807 15.5079 29.8582 15.1752 29.4718 14.9176C29.0855 14.66 28.463 14.1234 28.0767 13.7156C27.6903 13.3078 27.2181 12.7068 27.0357 12.3848C26.8425 12.0629 26.5634 11.5155 26.4239 11.1614C26.2737 10.8072 26.0805 10.1418 25.9946 9.68035C25.8981 9.2296 25.8229 8.55348 25.8229 8.17786C25.8229 7.81297 25.8766 7.20124 25.941 6.81488C26.0054 6.42853 26.1771 5.77387 26.3166 5.36605C26.4669 4.95823 26.703 4.40016 26.8639 4.13186C27.0142 3.86356 27.3898 3.33768 27.701 2.95133C28.0015 2.56497 28.5918 2.0069 28.9996 1.69567C29.4074 1.38444 30.0299 0.987353 30.3841 0.815639C30.7382 0.643926 31.3178 0.418552 31.6719 0.321963Z" fill="url(#paint0_linear_2070_475)"/>
<path d="M30.0621 18.5129C30.7168 18.3948 31.4358 18.2875 31.6719 18.2553C31.908 18.2338 33.1637 18.2338 34.4623 18.2446C36.5121 18.2768 37.0058 18.3197 38.1648 18.5665C38.9053 18.7168 39.9893 19.0065 40.5795 19.1997C41.1698 19.4036 42.1142 19.79 42.6723 20.069C43.2304 20.3481 44.0031 20.7773 44.3894 21.0349C44.7758 21.2925 45.409 21.7754 45.8061 22.0974C46.2139 22.4301 46.7827 22.9989 47.0939 23.3745C47.3944 23.7394 47.8666 24.3726 48.1349 24.7911C48.4032 25.2097 48.8003 25.9502 49.0257 26.4546C49.2511 26.959 49.4335 27.4742 49.4335 27.6137C49.4335 27.7425 48.5105 29.9855 47.3837 32.6041C46.2568 35.212 45.2802 37.4014 45.2158 37.4765C45.1407 37.5409 44.486 37.6482 43.7455 37.7126C43.005 37.7877 41.363 37.938 40.0966 38.056C38.8302 38.1741 37.6068 38.2814 36.9628 38.3136L36.0077 36.1135C35.3423 34.5681 34.9559 33.8276 34.7306 33.6237C34.5052 33.409 34.2905 33.3232 34.033 33.3232C33.8291 33.3232 33.5071 33.3983 33.3354 33.4841C33.11 33.6022 32.9276 33.8383 32.7129 34.3212C32.5412 34.6861 32.0905 35.7057 31.7148 36.5857C31.3392 37.4658 30.9529 38.2063 30.867 38.2385C30.7812 38.2707 29.3001 38.1633 27.5937 38.0024C25.8873 37.8414 24.1058 37.6804 23.6551 37.6375C23.2043 37.5945 22.7858 37.5087 22.7214 37.455C22.6677 37.4014 21.6696 35.1584 18.4178 27.6352L18.7934 26.7015C19.0081 26.1756 19.4266 25.3492 19.7378 24.8555C20.0813 24.2975 20.7145 23.5248 21.3691 22.8594C21.9594 22.2584 22.775 21.5286 23.1936 21.2496C23.6121 20.9598 24.4492 20.4661 25.0717 20.1441C25.6941 19.8329 26.7996 19.3822 27.5401 19.1461C28.2806 18.91 29.4074 18.6309 30.0621 18.5129Z" fill="url(#paint1_linear_2070_475)"/>
<path d="M13.6635 35.094C14.4255 33.3232 15.3914 31.0909 15.7992 30.1357C16.207 29.1698 16.5826 28.3864 16.647 28.3864C16.7007 28.3864 17.6987 30.6079 18.8471 33.3339C20.1886 36.5106 21.0579 38.4209 21.2725 38.6677C21.455 38.8824 21.8091 39.1507 22.0774 39.258C22.4209 39.4083 23.5155 39.5478 26.2522 39.7839C28.2913 39.9663 29.9977 40.1488 30.0406 40.181C30.0943 40.2132 29.665 41.3615 29.0855 42.7137C28.5167 44.066 27.9693 45.2573 27.8728 45.3538C27.7654 45.4504 27.3791 45.547 26.8425 45.6007C26.3703 45.6436 25.2863 45.7402 24.4278 45.8261C23.5692 45.9119 21.2296 46.1266 19.2227 46.309C17.2158 46.4914 15.3699 46.7061 15.1123 46.7919C14.8011 46.8993 14.6079 47.0495 14.5006 47.2749C14.4147 47.4466 14.3396 47.7578 14.3396 47.951C14.3289 48.1442 14.4362 48.4232 14.5757 48.6164C14.7152 48.7881 16.9153 50.7521 19.4588 52.9844C22.013 55.2166 24.1058 57.0948 24.1058 57.1484C24.1058 57.2021 24.0629 57.4704 23.9985 57.7387C23.9341 58.007 23.8482 58.2216 23.7838 58.2216C23.7194 58.2216 23.4941 58.1036 23.2687 57.9641C23.0541 57.8245 21.6589 56.9982 20.1886 56.1181C17.5914 54.5835 17.4841 54.5298 16.808 54.4869C16.2606 54.4439 16.0245 54.4869 15.6811 54.6586C15.445 54.7766 13.2449 56.0537 10.798 57.5133C8.35111 58.9621 6.33348 60.1319 6.31201 60.1212C6.29055 60.1105 6.81642 57.685 7.47108 54.7337C8.3833 50.6662 8.66234 49.2603 8.60868 48.9384C8.57648 48.7023 8.4155 48.3052 8.24379 48.0583C8.0828 47.8008 6.4408 46.2983 4.46609 44.5811C2.54505 42.9177 0.752795 41.34 0.463029 41.0825C0.183995 40.8356 -0.0199144 40.5888 0.00154978 40.5459C0.0230139 40.4922 0.452297 40.4278 0.935241 40.3849C1.42892 40.342 2.87775 40.2024 4.14413 40.0844C5.40759 39.9666 7.40815 39.7847 8.58975 39.6773L8.59794 39.6766C10.4009 39.5049 10.8302 39.4297 11.2702 39.2151C11.56 39.0756 11.9142 38.8073 12.0429 38.6356C12.1717 38.4638 12.9015 36.8648 13.6635 35.094Z" fill="url(#paint2_linear_2070_475)"/>
<path d="M49.0042 33.6451C50.1418 31.0158 51.1184 28.7513 51.1828 28.6118C51.258 28.4723 51.3438 28.3971 51.376 28.4508C51.4189 28.5045 52.4063 30.7475 53.5654 33.4305C54.7351 36.1135 55.744 38.4102 55.8191 38.5282C55.8942 38.6463 56.1733 38.8824 56.4308 39.0541C56.6991 39.2365 57.1391 39.3975 57.4826 39.4512C57.8045 39.5049 59.5002 39.6766 61.2388 39.8268C62.9774 39.9771 65.1023 40.1702 65.9609 40.2561C66.8195 40.3312 67.6244 40.4063 67.7639 40.4063C67.8927 40.4063 68 40.46 68 40.5137C68 40.5673 66.197 42.1986 64.0077 44.1197C61.8076 46.0407 59.8973 47.7686 59.7685 47.951C59.629 48.1442 59.4787 48.5413 59.4143 48.831C59.3177 49.3247 59.4036 49.7755 60.5197 54.68C61.1851 57.5992 61.7003 60.0032 61.6466 60.0246C61.6037 60.0354 59.4465 58.8012 52.1702 54.5191H50.5604L47.4481 56.365C45.7309 57.3845 44.2821 58.2216 44.2284 58.2216C44.1748 58.2216 44.0675 57.9855 44.0138 57.685C43.9387 57.2987 43.9387 57.084 44.0245 56.9552C44.0889 56.8587 46.2139 54.9591 48.7467 52.7375C51.2794 50.516 53.4151 48.5735 53.4902 48.4125C53.5546 48.2622 53.619 47.9725 53.619 47.79C53.619 47.5969 53.5439 47.3285 53.458 47.1998C53.3722 47.0602 53.1468 46.8778 52.9751 46.7919C52.7712 46.6954 51.8053 46.5558 50.4316 46.4271C49.1974 46.309 46.4178 46.0622 44.2284 45.869C42.0391 45.6758 40.2039 45.4719 40.1288 45.4075C40.0537 45.3431 39.5063 44.1733 38.9161 42.8211C38.3258 41.4688 37.8429 40.3205 37.8429 40.2776C37.8429 40.2239 38.0468 40.1702 38.3043 40.138C38.5512 40.1166 39.0234 40.0629 39.3454 40.0307C39.6673 39.9985 41.0196 39.8805 42.3503 39.7624C43.6811 39.6444 44.9582 39.5156 45.1943 39.4834C45.4304 39.4405 45.7953 39.3331 45.9992 39.2258C46.2031 39.1185 46.5037 38.8931 46.6646 38.7214C46.8363 38.539 47.7378 36.5965 49.0042 33.6451Z" fill="url(#paint3_linear_2070_475)"/>
<path d="M30.5558 44.1089C31.0816 42.8747 32.0583 40.6103 32.7129 39.097C33.3569 37.5731 33.9364 36.3282 34.0008 36.3282C34.0652 36.3282 34.6232 37.5516 35.2457 39.0434C35.8682 40.5244 36.8233 42.7889 37.3814 44.0553C37.9502 45.3753 38.5082 46.4914 38.68 46.6739C38.8409 46.8456 39.1629 47.071 39.399 47.1783C39.6673 47.2964 40.322 47.4144 41.1161 47.4895C41.8245 47.5539 42.6186 47.629 42.8869 47.6505C43.1552 47.6827 44.7221 47.8222 46.3749 47.9725C48.0276 48.1227 49.6696 48.273 50.0238 48.3052C50.3779 48.3374 50.6784 48.391 50.6999 48.4125C50.7106 48.434 50.5389 48.6164 50.3243 48.8203C50.0989 49.0135 48.2744 50.6126 46.2675 52.3726C44.2606 54.1327 42.522 55.7211 42.404 55.9035C42.2859 56.0859 42.1357 56.4508 42.0713 56.7191C41.9747 57.127 41.9962 57.3845 42.2001 58.329C42.3289 58.9514 42.8762 61.3876 43.4128 63.7487C43.9494 66.1097 44.3787 68.0522 44.368 68.0522C44.3465 68.063 42.3825 66.9146 39.9893 65.498L39.5711 65.2523C37.346 63.9451 35.3891 62.7954 35.1062 62.654C34.6554 62.4286 34.4623 62.3857 33.872 62.4179L33.8714 62.4179C33.1744 62.4608 33.1624 62.4615 28.6669 65.1331L28.4922 65.2368C26.0882 66.6625 24.0491 67.8718 23.9234 67.9556C23.7087 68.0737 23.6765 68.0737 23.6765 67.9342C23.6765 67.8483 24.1917 65.5195 24.8141 62.7613C25.4473 59.9924 25.9517 57.5026 25.9624 57.2021C25.9624 56.9123 25.8873 56.4938 25.7907 56.2899C25.6941 56.0859 25.4795 55.7747 25.3185 55.603C25.1575 55.442 23.2687 53.7678 21.133 51.9004C18.9866 50.033 17.2695 48.4769 17.3231 48.4447C17.3661 48.4125 19.8237 48.1549 22.7965 47.8866C27.2074 47.4681 28.2591 47.35 28.5918 47.1783C28.8064 47.0602 29.1177 46.8349 29.2787 46.6632C29.4504 46.4914 29.987 45.4182 30.5558 44.1089Z" fill="url(#paint4_linear_2070_475)"/>
</g>
</g>
<defs>
<linearGradient id="paint0_linear_2070_475" x1="36.7625" y1="1.3763e-06" x2="36.7625" y2="68.0523" gradientUnits="userSpaceOnUse">
<stop stop-color="#30B576"/>
<stop offset="1" stop-color="#1F2F78"/>
</linearGradient>
<linearGradient id="paint1_linear_2070_475" x1="36.7625" y1="1.3763e-06" x2="36.7625" y2="68.0523" gradientUnits="userSpaceOnUse">
<stop stop-color="#30B576"/>
<stop offset="1" stop-color="#1F2F78"/>
</linearGradient>
<linearGradient id="paint2_linear_2070_475" x1="36.7625" y1="1.3763e-06" x2="36.7625" y2="68.0523" gradientUnits="userSpaceOnUse">
<stop stop-color="#30B576"/>
<stop offset="1" stop-color="#1F2F78"/>
</linearGradient>
<linearGradient id="paint3_linear_2070_475" x1="36.7625" y1="1.3763e-06" x2="36.7625" y2="68.0523" gradientUnits="userSpaceOnUse">
<stop stop-color="#30B576"/>
<stop offset="1" stop-color="#1F2F78"/>
</linearGradient>
<linearGradient id="paint4_linear_2070_475" x1="36.7625" y1="1.3763e-06" x2="36.7625" y2="68.0523" gradientUnits="userSpaceOnUse">
<stop stop-color="#30B576"/>
<stop offset="1" stop-color="#1F2F78"/>
</linearGradient>
</defs>
</svg>
